<svg width="352" height="718" viewBox="0 0 352 718" fill="none" xmlns="http://www.w3.org/2000/svg">
<path fill-rule="evenodd" clip-rule="evenodd" d="M95.2054 656.167C93.6655 649.019 100.709 646.603 105.149 645.013C108.33 642.956 120.114 635.834 129.232 627.04C136.694 619.845 141.773 610.623 143.888 609.744C143.888 609.744 146.064 608.486 146.29 607.551C147.614 602.072 146.51 596.965 146.29 593.644C142.045 592.533 138.644 591.147 136.1 589.208C135.358 589.455 134.246 589.77 133.914 588.689C131.615 573.396 130.623 558.284 128.752 542.979C121.672 484.688 120.873 416.589 133.054 363.349C133.182 360.71 132.951 358.326 132.715 356.059C131.068 355.882 130.072 354.292 128.727 353.342C126.64 351.688 124.168 350.417 124.27 347.526C123.774 347.152 123.832 346.941 124.077 346.464C122.484 339.638 129.586 332.444 131.595 326.816C127.944 291.212 132.912 257.567 130.14 221.954C126.64 220.494 128.993 211.366 129.232 207.601C131.172 183.346 143.818 159.365 166.592 151.441C167.893 151.178 169.85 149.695 170.927 150.691C173.009 149.869 175.779 151.49 177.391 149.623L177.374 149.611C178.731 147.736 179.339 145.351 179.785 143.097C179.711 143.732 179.586 144.362 179.433 144.978C183.359 133.946 184.348 130.997 196.987 130.477C202.68 130.401 210.185 130.572 213.505 135.985C214.865 138.502 214.449 141.392 215.294 144.041C216.843 148.902 223.533 146.553 227.045 149.077C255.153 158.065 278.209 176.411 285.787 205.859C287.336 209.408 289.094 212.94 290.389 216.603C290.589 217.147 291.141 218.987 289.816 219.833L289.176 220.243C297.613 259.557 298.172 292.685 269.828 318.895C267.701 330.157 273.173 345.537 271.07 356.472C272.268 358.167 270.748 359.533 269.216 359.642C269.068 359.723 268.471 359.984 268.309 360.058C270.747 394.379 260.509 440.632 255.997 458.888C255.382 469.849 259.135 478.853 266.854 484.827C275.382 490.064 292.243 513.716 289.117 538.527C292.77 539.241 296.396 539.633 299.901 541.002C315.235 538.303 315.083 567.776 316.06 578.139C317.715 595.49 318.744 620.639 302.21 631.745C297.855 634.896 289.023 638.584 284.498 633.541C283.015 631.765 282.643 630.05 283.227 628.236C275.754 617.709 277.767 603.94 277.081 591.594C274.914 591.464 272.647 592.477 270.55 592.108C268.399 590.218 276.248 590.733 277.062 590.622C276.979 588.718 276.825 586.713 276.627 584.794C275.396 585.04 273.818 585.629 272.635 585.674C271.934 585.844 271.439 584.882 271.862 584.383C272.786 583.505 275.141 583.641 276.467 583.516C276.243 581.909 275.969 580.22 275.665 578.666C274.043 578.608 272.369 579.638 270.833 579.427C271.995 578.654 274.177 578.889 275.594 578.379C274.672 573.374 272.795 568.623 271.05 563.941C266.768 565.702 263.074 565.771 258.894 565.243C257.184 565.506 256.35 565.157 256.073 563.024L256.182 562.89C252.869 543.123 242.177 524.279 222.318 502.909C218.395 498.532 213.962 493.379 211.009 487.617C205.074 475.626 204.06 462.394 199.488 449.941C195.218 437.424 189.38 425.451 183.899 413.586C183.096 419.667 182.016 425.905 180.894 431.868C175.954 452.999 176.433 475.543 180.068 496.791C185.447 526.55 182.854 556.451 184.05 586.42C184.034 588.149 183.819 589.719 184.073 591.519C184.107 591.657 184.041 591.821 183.877 591.817L183.566 591.825C180.981 593.713 177.411 594.054 174.373 595.078C173.097 596.084 173.456 597.679 173.34 598.923C173.006 604.283 172.579 609.665 173.109 615.19C175.453 619.668 178.364 618.743 178.959 625.055C179.481 632.262 180.403 639.925 176.883 646.342L178.214 646.571C180.191 650.706 178.984 653.391 174.339 655.14C151.406 664.105 119.136 672.244 95.2054 665.477C94.7704 665.907 94.1378 665.461 93.6432 664.785C93.168 664.136 92.8201 663.274 92.8975 662.774C93.3067 660.58 92.744 656.572 95.2054 656.167Z" fill="white"/>
<path fill-rule="evenodd" clip-rule="evenodd" d="M94.2218 663.345C114.829 672.571 152.249 660.93 172.497 654.195C177.957 652.231 179.776 651.846 178.246 645.571C175.384 651.078 169.228 652.408 163.331 653.512C143.354 658.053 122.987 666.435 101.623 662.345C98.4868 661.853 95.384 660.16 94.4715 657.036C93.9089 658.36 94.2568 660.153 94.0316 661.609C93.9898 662.189 93.9769 662.817 94.2218 663.345ZM177.567 629.029C177.195 625.33 176.6 621.423 174.488 618.155C174.718 623.441 171.534 632.425 164.558 629.432C162.582 628.388 161.474 626.285 160.203 624.597C155.978 619.042 150.559 614.219 144.438 610.714C141.034 611.298 139.57 617.506 137.375 620.104C139.821 621.191 144.255 623.668 144.703 626.23C141.648 625.205 138.837 623.297 135.633 622.627C134.607 624.039 133.519 625.408 132.377 626.731C133.869 627.387 139.887 630.419 139.847 631.933C136.594 631.406 133.44 629.818 130.169 629.165C128.714 630.604 127.389 632.153 125.941 633.596C128.129 634.495 130.44 635.498 131.635 637.593C131.692 637.687 131.552 637.793 131.475 637.702C129.836 635.731 127.015 635.37 124.571 634.926C120.82 638.447 116.621 641.553 111.921 643.877C107.218 646.441 100.071 647.027 98.2 652.589C96.7032 658.149 101.371 658.742 105.677 659.135C110.034 659.753 114.422 659.847 118.75 659.486C132.281 658.924 145.071 654.952 157.857 651.482C173.49 648.614 178.563 646.291 177.567 629.029ZM172.017 596.655C163.734 597.781 155.226 597.087 147.136 595.095C147.696 597.409 148.076 599.761 148.308 602.127H148.29C148.372 602.88 148.58 603.853 148.587 604.778C148.534 606.139 148.554 607.8 147.727 608.933C153.716 613.349 159.563 618.27 163.723 624.43C166.476 629.441 170.139 626.391 171.049 622.376C171.634 615.274 171.359 608.501 171.649 601.69L171.675 601.694C171.75 600.013 171.856 598.333 172.017 596.655ZM172.984 596.516C173.021 596.76 173.054 597.004 173.089 597.251C173.133 596.991 173.163 596.729 173.227 596.474C173.146 596.487 173.065 596.503 172.984 596.516ZM177.155 592.922C178.54 592.501 179.917 592.054 181.289 591.594C181.626 591.485 182.186 591.452 182.366 591.114C177.258 580.502 180.254 568.171 180.013 556.828C181.797 525.9 174.682 495.518 173.665 464.775C173.746 447.352 179.818 430.749 182.902 413.732C179.749 407.006 176.81 400.203 173.958 393.361C173.866 393.154 174.219 393.025 174.333 393.211C177.694 398.362 181.042 403.513 184.158 408.806C199.24 431.212 206.021 456.762 213.164 482.24C215.479 488.043 219.195 493.157 223.322 497.915C240.445 516.357 256.428 537.396 260.418 562.315C276.309 561.787 280.9 552.065 286.45 539.802C286.435 539.756 286.419 539.71 286.404 539.665C286.603 539.318 286.741 538.947 286.85 538.563C286.9 538.602 286.951 538.644 287.001 538.685C290.708 531.618 285.463 516.883 282.655 509.509C278.977 501.312 274.025 493.687 267.495 487.352C262.685 483.093 257.707 478.45 255.645 472.344C252.205 462.792 255.242 452.124 257.17 442.526C261.829 418.726 266.348 382.112 265.633 357.813C259.678 350.742 249.236 351.44 240.883 349.76C238.443 352.051 236.362 354.75 233.316 356.231C229.771 359.53 226.316 362.985 223.711 367.026C220.81 372.544 217.142 377.337 211.998 381.05C209.398 383.099 205.649 386.07 202.015 384.816C199.435 383.978 198.001 381.39 195.461 380.522C192.408 379.902 190.578 379.678 188.778 376.944C186.605 376.516 184.532 375.454 185.167 372.941C184.598 373.133 184.029 373.318 183.469 373.512C182.333 373.905 181.108 372.685 181.486 371.621C182.423 369.421 183.508 367.253 183.873 364.875C184.256 354.283 186.996 351.366 196.756 347.12C192.85 346.926 189.023 347.879 185.316 348.935C166.813 355.683 154.68 359.842 135.401 351.37C126.024 429.187 126.179 508.534 137.705 586.085C148.701 594.192 164.028 593.976 177.155 592.922ZM288.156 548.031C288.119 547.713 288.078 547.397 288.034 547.078C285.717 553.355 281.747 559.32 275.836 562.954C278.099 565.769 282.506 566.607 285.48 564.303C290.667 560.426 288.504 553.412 288.156 548.031ZM278.296 577.294C280.598 577.118 290.443 576.78 291.624 578.32C290.294 578.881 288.465 578.571 287.034 578.634C284.254 578.747 281.482 578.992 278.731 579.38C278.937 580.449 279.123 581.516 279.276 582.587C282.051 582.851 287.454 582.971 289.215 584.906C286.073 585.406 282.801 584.957 279.648 585.581C279.801 587.047 279.913 588.515 279.996 589.983C281.252 590.116 288.64 591.336 288.633 592.494C285.867 592.861 282.937 592.379 280.118 592.652C280.729 601.45 278.659 628.021 290.721 629.647C301.266 629.093 305.892 612.053 307.325 603.879C310.503 584.832 309.958 564.525 303.66 546.166C301.411 541.061 295.288 540.175 290.11 539.911C289.913 540.775 289.719 541.624 289.5 542.479C291.745 547.553 292.46 553.267 292.522 558.759C292.047 566.652 282.278 572.521 275.184 567.307C276.51 570.536 277.534 573.895 278.296 577.294ZM292.25 634.078C313.138 629.601 316.565 605.484 315.129 587.751C313.958 575.407 315.365 549.382 303.936 542.13C318.707 555.573 317.424 647.096 284.69 631.122C285.506 633.7 289.703 634.444 292.25 634.078ZM268.696 360.804C268.562 360.76 268.431 360.701 268.311 360.629C268.341 363.675 268.293 366.72 268.182 369.762C268.396 366.777 268.567 363.79 268.696 360.804ZM270.418 314.436C298.296 286.739 292.977 255.333 286.574 220.738C276.239 221.969 265.846 224.441 256.539 228.978C259.822 244.248 260.032 258.089 261.446 273.583C261.872 275.499 261.391 279.188 258.668 278.337C233.646 298.145 230.737 338.849 197.9 350.62C184.516 356.043 190.164 360.446 185.742 370.687C188.175 370.242 190.346 368.209 191.392 366.262C191.91 365.296 193.42 366.147 192.915 367.111C191.825 369.186 189.995 370.855 187.827 371.898C188.094 372.421 188.186 373.01 188.214 373.562C192.12 374.359 191.022 376.207 193.661 377.088C195.388 377.564 197.049 377.767 198.541 378.809C203.62 383.526 204.88 383.179 210.331 379.03C210.257 378.655 217.675 371.431 219.973 367.393C221.888 364.024 223.892 360.631 226.827 358.026C241.197 343.357 256.507 329.512 270.418 314.436ZM133.459 222.32C134.884 241.903 134.516 259.396 134.21 279.009C134.033 292.202 133.95 305.399 134.409 318.588C146.057 288.572 142.492 256.001 144.147 224.451C140.705 223.308 137.007 222.809 133.459 222.32ZM216.959 147.047C217 147.119 217.044 147.191 217.088 147.26C217.377 147.28 217.668 147.306 217.963 147.339C217.628 147.239 217.294 147.145 216.959 147.047ZM177.267 149.35C177.278 149.318 177.289 149.285 177.298 149.254C177.271 149.27 177.245 149.287 177.217 149.305C177.238 149.318 177.252 149.333 177.267 149.35ZM92.1934 659.525C92.2503 657.964 92.2724 655.947 94.1062 655.393C93.2746 648.665 98.8766 644.835 104.759 642.971C109.774 639.912 115.462 637.775 120.07 634.087C117.93 633.686 115.79 633.202 113.888 632.274C112.453 631.574 113.144 629.242 114.7 629.458C117.455 629.82 119.93 631.217 122.519 632.187C123.99 630.983 125.414 629.726 126.76 628.394C125.084 628.071 122.952 628.19 121.976 626.531C121.672 626.013 121.808 625.475 122.175 625.074C123.873 623.36 127.239 625.072 129.349 625.571C130.362 624.407 131.34 623.219 132.301 622.017C130.707 621.871 126.563 622.161 127.375 619.539C128.93 617.489 132.276 618.719 134.526 619.141C137.38 615.643 138.299 610.276 142.759 608.351C142.918 607.503 144.03 607.568 144.772 607.82C145.24 605.59 145.492 603.83 145.602 602.127L145.657 602.122C145.706 599.631 145.61 597.134 145.461 594.652C142.15 593.738 138.866 592.538 136.113 590.57C134.848 590.941 133.314 590.514 133.051 589.032C130.762 573.861 129.745 558.501 127.882 543.275C121.092 487.203 119.613 418.763 132.183 363.367C132.281 361.268 132.132 359.167 131.92 357.084C130.421 356.685 129.528 355.225 128.287 354.381C125.981 352.507 123.635 351.457 123.423 348.187C122.957 347.744 122.902 347.074 123.158 346.494C122.56 343.136 123.44 339.803 125.232 336.901C127.197 333.596 129.053 330.26 130.692 326.791C127.108 291.827 131.97 257.941 129.311 222.802C125.902 221.002 128.042 211.001 128.359 207.667C130.351 185.774 140.603 161.601 162.401 152.494C163.93 151.207 166.066 150.771 167.935 150.062C169.198 149.442 171.252 148.905 172.117 150.347C173.033 149.922 175.986 149.597 176.997 148.86C177.185 148.722 177.305 148.572 177.334 148.404C177.408 148.406 177.496 148.39 177.59 148.371C178.522 147.057 179.41 137.91 180.559 138.562C181.813 141.704 180.944 145.253 179.745 148.425C178.918 151.231 177.784 158.448 173.39 156.602C172.633 156.227 173.101 155.252 173.78 155.173C175.863 154.58 176.327 151.528 177.132 149.739C176.178 150.529 171.832 151.713 171.357 151.964C161.93 173.537 218.929 172.405 223.41 157.532C226.605 152.394 223.848 149.61 218.152 148.785C222.338 153.424 217.038 154.453 215.023 149.905C213.095 146.647 212.217 142.69 212.876 138.942C212.537 137.626 212.25 135.867 214.224 136.221C214.292 136.046 214.399 136.184 214.357 136.308C215.077 137.451 214.576 139.094 214.832 140.414C215.049 142.574 215.664 144.69 216.707 146.601C218.644 146.97 220.572 147.365 222.491 147.797C223.642 145.465 231.109 150.116 233.113 150.664C259.743 158.507 279.993 179.395 287.061 205.741C288.639 209.249 290.342 212.775 291.633 216.392C292.21 217.959 292.21 219.902 290.624 220.917C298.355 256.276 300.241 293.116 271.034 319.637C270.371 322.508 270.813 325.554 270.833 328.477C270.588 335.136 276.295 357.957 269.666 360.908C271.603 390.471 264.34 430.695 257.3 459.214C256.78 469.016 259.745 477.933 267.726 484.118C282.899 495.428 289.291 514.306 291.066 532.297C291.318 534.14 291.07 536.017 290.654 537.827C293.943 538.438 297.022 538.835 300.215 540.038C317.824 536.673 316.568 574.393 317.916 585.585C318.971 602.131 318.312 621.965 303.062 632.799C297.935 636.439 288.884 639.934 283.888 634.423C282.475 632.736 281.704 630.764 282.26 628.608C275.098 618.151 276.789 604.786 276.253 592.887C274.378 592.953 272.334 593.786 270.487 593.328C269.065 592.953 268.883 591.133 270.086 590.409C271.824 589.427 274.185 589.8 276.129 589.735C276.069 588.596 275.984 587.457 275.875 586.318C274.03 586.768 271.387 587.848 270.837 585.277C270.616 582.936 273.581 582.758 275.428 582.657C275.299 581.774 275.155 580.894 274.99 580.017C273.577 580.159 272.085 581.058 270.695 580.628C269.907 580.318 269.634 579.524 270.209 578.881C271.279 577.836 273.109 578.045 274.524 577.72C273.665 573.52 272.111 569.504 270.614 565.487C267.905 566.425 264.97 567.045 262.079 566.809C260.581 566.495 258.944 566.406 257.429 566.609C255.745 566.164 255.355 564.368 255.134 562.902C255.167 562.85 255.2 562.799 255.237 562.754C251.344 540.151 237.378 520.625 221.719 503.802C217.406 498.989 213.176 493.984 210.246 488.268C204.293 476.321 203.226 462.879 198.672 450.468C194.836 439.197 189.708 428.389 184.682 417.565C182.666 431.82 178.903 445.842 178.471 460.298C177.815 478.588 181.857 496.611 183.581 514.754C186.682 538.633 183.865 562.66 185.362 586.556C185.351 588.247 185.132 589.839 185.373 591.53C185.507 592.466 184.833 593.053 184.124 593.073C181.52 594.777 178.248 595.381 175.255 596.11C174.425 596.742 174.784 598.3 174.637 599.254C174.58 600.214 174.519 601.171 174.461 602.127H174.454C174.191 606.162 173.989 609.657 174.414 614.052C177.342 618.368 179.452 617.678 180.266 624.24C180.714 631.089 181.701 638.495 178.699 644.712C180.043 645.017 180.553 649.105 180.351 650.187C180.01 653.238 177.312 654.203 174.703 655.256C155.641 662.377 115.138 674.1 95.5502 666.038C94.1475 666.83 92.5831 665.278 92.1299 664.029C91.5306 662.509 92.082 661.036 92.1934 659.525Z" fill="black"/>
<path fill-rule="evenodd" clip-rule="evenodd" d="M156.198 99.2556C157.7 81.0001 162.274 64.8315 183.764 64.1421C193.462 64.2285 203.362 66.2826 212.28 70.0831C233.956 80.9188 240.834 120.513 221.736 136.451C221.85 136.515 221.877 136.701 221.743 136.791C217.798 139.438 213.412 141.615 209.02 143.445C197.32 148.376 183.546 150.518 171.614 145.169C153.405 137.444 153.132 115.948 156.198 99.2556Z" fill="white"/>
<path fill-rule="evenodd" clip-rule="evenodd" d="M120.356 90.7468C119.607 90.0748 119.049 89.1934 118.767 88.2051C118.509 87.304 118.491 86.3201 118.765 85.4212C119.058 84.4569 119.69 83.689 119.548 82.6854C119.533 82.5872 119.513 82.4846 119.482 82.3821C118.935 80.4928 117.59 79.1292 118.071 77.0347C118.207 76.4435 118.463 75.9112 118.819 75.4923C118.78 75.0385 118.745 74.5803 118.717 74.1222C117.927 72.2786 117.955 70.0882 118.798 68.273C118.9 67.3436 119.056 66.4229 119.275 65.5175C119.174 64.7168 119.314 63.8354 119.572 63.1351C120.026 61.9029 120.586 60.6885 121.195 59.4942C121.123 59.1676 121.155 58.8225 121.336 58.5155C121.665 57.9577 122.099 57.4672 122.543 56.9879C122.857 56.4287 123.173 55.8741 123.487 55.3268C123.632 55.0752 123.793 54.7962 123.97 54.5005C123.488 53.6091 123.23 52.7403 123.74 51.692C123.932 51.2982 124.458 51.0078 124.892 51.0336C125.365 51.0617 125.843 51.0829 126.324 51.101C127.223 50.0193 128.241 49.0482 129.332 48.4893C130.437 47.5555 131.557 46.6392 132.647 45.7032C132.956 45.4371 133.267 45.1709 133.575 44.9047C133.577 44.8982 133.579 44.8895 133.582 44.8829C133.809 44.056 134.065 43.2401 134.321 42.4198C134.481 41.9114 134.529 41.3791 135.026 41.102C136.063 40.5239 137.658 40.4322 138.849 40.3341C138.967 40.2293 139.085 40.1268 139.203 40.0221C138.663 38.5865 138.759 37.0615 139.44 35.6237C139.672 35.135 140.477 34.9147 140.919 35.2376C141.939 35.9837 143.149 36.2477 144.346 36.1386C146.105 34.7903 153.202 28.6933 154.298 28.0497C154.312 28.0266 154.323 28.0035 154.337 27.9806C154.954 26.9992 155.702 26.2112 156.544 25.5794C156.664 25.4544 156.784 25.3291 156.905 25.2039C156.799 24.4558 156.521 23.7334 156.073 23.1291C156.025 23.0593 155.97 22.9917 155.915 22.9262C155.132 21.9968 156.088 20.8012 157.182 21.2877C157.261 21.3226 157.34 21.3576 157.419 21.3946C158.26 21.7686 159.191 22.175 160.16 22.518C160.515 22.3856 160.876 22.2656 161.206 22.1334L164.737 20.7181C165.318 20.4851 165.933 20.2876 166.495 20.0138C166.691 18.7138 167.998 17.8612 169.355 17.9057C169.276 17.6561 169.16 17.4137 168.995 17.184C168.947 17.1163 168.894 17.0509 168.839 16.9876C168.141 16.1782 169.074 14.6772 170.071 15.3971C170.142 15.4473 170.214 15.4975 170.284 15.5477C170.561 15.7416 170.845 15.9236 171.132 16.0999C171.591 15.9 172.108 15.8544 172.65 16.0658C173.848 16.5338 174.954 17.0096 176.009 17.7431C176.052 17.773 176.096 17.7981 176.14 17.8262C176.664 17.1953 177.495 16.7734 178.244 16.7779C178.26 16.7779 178.271 16.7777 178.285 16.7775C178.845 15.9268 179.872 15.4325 180.863 15.5527C180.796 14.332 182.022 13.2427 183.137 13.1103C184.441 12.9558 185.616 13.7105 186.008 14.9785C186.117 15.3315 186.225 15.6847 186.334 16.0379C187.347 15.5285 188.415 15.1382 189.531 14.9433C192.072 14.4996 194.557 14.9721 197.006 15.6755C197.251 15.7458 197.495 15.818 197.739 15.89C198.089 15.4866 198.416 15.0736 198.729 14.6881C199.27 14.0227 200.568 14.555 200.48 15.4102C200.419 16.0004 200.66 16.4249 201.047 16.7267C201.472 16.7886 201.883 16.8074 202.503 16.795C203.322 16.7784 203.694 16.7528 204.551 16.4199C204.95 16.265 205.447 15.8577 205.68 15.492C206.571 14.0899 208.836 13.7122 209.915 15.0491C211.051 14.5537 212.484 15.237 213.114 16.2004C213.444 16.7042 214.132 16.9859 214.998 17.228C215.648 17.4095 216.313 17.547 216.981 17.6672C217.278 17.2647 217.905 16.9948 218.365 17.3323C218.676 17.5616 218.979 17.797 219.277 18.0383C221.577 18.3542 223.865 18.3656 226.058 17.4715C227.914 16.7144 229.619 18.7821 229.313 20.5178C229.85 20.7969 230.434 20.9825 230.965 21.2749C232.123 21.9132 233.075 22.9223 233.655 24.1078C233.759 24.3201 233.853 24.5357 233.942 24.7523C234.375 25.1038 234.803 25.4646 235.221 25.8453C235.917 25.4897 236.611 25.1341 237.307 24.7785C237.828 24.5123 238.705 24.6978 238.808 25.3872C238.977 26.5217 239.386 27.462 239.97 28.2496C241.869 29.2444 243.697 30.3615 245.445 31.6029C247.456 32.2312 249.594 32.5977 251.351 33.0101C251.953 33.1519 252.281 33.9351 251.942 34.4565C251.583 35.0085 251.224 35.5605 250.868 36.1124C251.868 37.0855 252.807 38.1022 253.693 39.1537C256.159 42.0772 258.223 45.2822 260.07 48.6769C260.8 48.9714 261.531 49.2638 262.262 49.5583C262.967 49.8419 263.284 50.6579 262.713 51.2579C262.442 51.5437 262.199 51.8447 261.991 52.1611C263.026 53.8694 264.245 55.4271 265.949 56.4481C266.468 56.7579 266.858 57.2445 267.065 57.7964C267.243 57.9143 267.418 58.0408 267.591 58.1695C268.072 58.5317 268.363 59.3215 267.799 59.7905C267.402 60.1221 267.03 60.5149 266.715 60.949C266.648 61.1955 266.578 61.4443 266.507 61.6908C268.092 63.1438 269.409 64.8325 270.398 66.7262C270.632 66.6891 270.873 66.7131 271.068 66.8571C272.836 68.1596 272.889 70.2344 272.177 72.0888C272.606 74.8836 272.331 77.7482 271.503 80.4557C272.591 81.5378 273.245 83.0999 273.512 84.6053C273.983 87.2495 274.016 91.3162 274.138 94.015C275.324 95.156 276.169 96.633 276.639 98.2213C277.035 98.4177 277.431 98.614 277.828 98.8104C278.18 98.9849 278.438 99.4452 278.416 99.8336C278.316 101.712 277.539 103.196 276.508 104.54C276.143 105.576 275.602 106.531 274.893 107.448C274.403 108.076 273.924 108.678 273.501 109.357C273.458 109.424 273.431 109.488 273.412 109.531C273.578 109.71 273.716 110.007 273.836 110.219C274.847 111.994 274.862 114.076 273.427 115.623C273.967 116.063 273.985 116.953 273.508 117.499C270.403 121.035 267.814 125.336 263.505 127.214C263.485 127.247 263.468 127.279 263.453 127.312C264.326 129.407 264.444 130.495 263.731 132.66C263.726 132.679 263.72 132.697 263.713 132.716C263.332 133.851 262.632 135.668 261.369 136.022C260.971 136.133 260.579 136.183 260.192 136.181C259.19 137.143 258.19 138.107 257.19 139.072C257.102 139.549 257.047 140.032 257.03 140.518C257.002 141.332 256.233 141.991 255.406 141.751C255.115 141.666 253.505 140.106 253.209 140.114C253.06 140.263 252.916 140.411 252.772 140.562C252.24 141.118 251.502 141.995 251.441 142.578C251.323 143.675 250.601 144.932 249.434 145.154C248.997 145.597 248.296 145.73 247.76 145.152C247.725 145.115 247.69 145.078 247.653 145.045C247.596 145.039 247.542 145.032 247.485 145.025C247.226 145.793 246.968 146.561 246.708 147.327C246.198 148.837 244.25 149.808 242.867 148.926C242.644 149.059 242.425 149.201 242.206 149.343C241.874 149.555 241.537 149.771 241.191 149.974C241.171 150.03 241.152 150.087 241.134 150.142C240.911 150.82 239.983 151.184 239.412 150.794C239.235 150.851 239.053 150.896 238.869 150.934C237.904 151.123 236.933 151.071 236 150.75C235.333 150.523 234.696 150.089 233.978 150.03C233.934 150.027 233.887 150.03 233.842 150.028C233.256 151.224 231.918 152.255 230.864 152.605C229.482 153.064 228.069 152.9 226.811 152.338C226.472 153.015 226.045 153.655 225.536 154.248C225.254 154.575 224.744 154.505 224.453 154.248C223.9 153.759 223.351 153.268 222.802 152.777C222.405 152.624 222.005 152.441 221.587 152.271C220.28 151.739 218.846 151.518 217.637 150.749C217.063 150.384 216.524 149.918 216.079 149.378C215.241 148.895 214.472 148.295 213.778 147.606C213.433 147.609 213.071 147.528 212.721 147.351C211.257 146.609 210.487 145.1 210.419 143.555C209.233 140.773 208.533 137.806 208.34 134.769C208.279 133.772 208.268 132.766 208.345 131.769C208.397 131.067 208.575 130.598 208.842 129.963C208.931 129.756 209.012 129.566 209.076 129.356C209.06 128.685 209.052 128.013 209.043 127.343C208.861 126.778 208.537 126.252 208.087 125.809C207.388 125.124 207.069 123.701 207.704 122.855C208.117 122.307 208.529 121.76 208.942 121.212C208.826 118.862 208.262 115.123 209.513 114.73C209.463 114.381 209.356 114.037 209.294 113.69C209.001 112.023 209.176 110.533 210.065 109.075C210.251 108.772 210.408 108.504 210.537 108.242C210.618 107.762 210.699 107.282 210.78 106.802C210.905 106.062 211.028 105.316 211.133 104.566C211.187 103.61 211.238 102.655 211.292 101.697C211.343 100.815 211.4 99.9339 211.459 99.0504C211.435 98.6555 211.4 98.2606 211.349 97.8657C211.05 95.5116 210.084 94.6411 208.413 93.0048C208.15 92.9634 207.89 92.9176 207.634 92.8652C206.441 92.6187 205.194 92.2369 203.966 92.3743C202.633 92.5227 201.441 93.0965 200.145 92.3634C199.764 92.1452 198.926 91.5431 198.854 91.0653C198.85 91.0348 198.843 91.0086 198.834 90.989C198.745 90.9759 198.629 90.9649 198.557 90.9628C197.528 90.9279 196.545 91.3315 195.508 91.2202C194.281 91.0893 193.182 90.5461 192.46 89.741C191.534 89.9679 190.589 90.0704 189.628 89.9439C188.823 89.8392 188.101 89.5774 187.387 89.189C186.869 88.9098 187.033 88.8291 186.468 89.056C185.184 89.5752 184.022 90.2603 182.575 89.9046C181.825 89.7214 181.177 89.3178 180.632 88.7745C180.503 88.648 180.284 88.4582 180.138 88.2793C179.451 88.6262 177.722 89.4094 177.437 89.4792C176.632 89.6756 175.779 89.645 174.995 89.3832C174.42 89.1912 173.715 88.6676 173.21 88.5607C172.555 88.4211 171.102 89.3287 170.321 89.6406C168.951 90.1883 167.5 90.3235 166.113 89.7585C165.636 89.5643 164.708 88.7898 164.351 88.7963C163.771 89.5098 162.152 93.4128 161.666 94.8375C159.699 100.597 159.189 118.581 160.097 123.169C160.132 123.304 160.169 123.437 160.207 123.573C161.323 127.563 162.485 131.621 164.351 135.339C166.113 138.843 168.548 141.997 172.043 143.911C175.667 145.896 179.921 146.417 183.996 146.149C186.619 145.979 189.199 145.453 191.738 144.794C193.064 144.452 194.379 144.07 195.688 143.673C196.259 143.5 196.839 143.339 197.399 143.138C198.388 142.783 198.907 142.754 199.854 143.21C200.716 143.625 200.937 144.849 200.489 145.619C199.758 146.876 198.419 146.963 197.125 147.329C195.808 147.702 194.486 148.06 193.156 148.381C190.606 148.992 188.016 149.461 185.403 149.677C180.724 150.067 175.903 149.465 171.645 147.43C171.163 147.198 170.7 146.952 170.251 146.686C170.417 146.917 170.586 147.148 170.756 147.377C171.229 148.012 170.879 149.092 170.216 149.439C170.006 149.548 169.796 149.653 169.584 149.755C169.555 149.823 169.524 149.891 169.489 149.958C168.883 151.171 167.614 151.887 166.321 152.197C164.785 152.563 163.065 152.304 161.502 152.258C160.053 152.214 158.605 152.171 157.158 152.127C156.817 152.118 156.476 152.107 156.134 152.096C154.414 152.044 152.696 151.994 150.979 151.941C149.447 151.896 149.519 152.014 148.081 151.403C147.44 151.128 146.915 150.739 146.473 150.222C146.197 150.1 145.93 149.961 145.674 149.801C144.851 149.291 144.12 148.606 143.447 147.851C142.302 148.211 140.698 147.877 140.475 146.444C140.116 144.151 137.127 143.171 135.731 141.513C134.604 140.176 133.798 138.424 133.84 136.742C130.999 135.371 129.455 131.761 129.093 128.698C128.925 127.277 128.951 125.757 128.708 124.312C128.601 124.197 128.505 124.075 128.424 123.944C127.71 122.794 127.089 121.609 126.542 120.396C125.798 119.862 124.903 119.532 123.966 119.478C121.664 119.345 121.231 116.249 123.426 115.503C123.437 115.498 123.445 115.496 123.456 115.492C122.861 114.008 122.912 112.252 123.634 110.847C123.603 110.694 123.575 110.544 123.546 110.391C122.314 109.071 121.607 107.236 121.686 105.449C121.124 105.054 120.493 104.749 119.804 104.559C118.738 104.267 118.732 102.971 119.52 102.391C119.837 102.157 120.1 101.884 120.318 101.583C119.774 99.9514 119.988 98.0642 121.102 96.7247C120.395 95.8214 119.688 94.9182 118.981 94.015C118.513 93.4172 118.266 92.4027 118.981 91.8354C119.439 91.4711 119.896 91.1089 120.356 90.7468Z" fill="black"/>
<path fill-rule="evenodd" clip-rule="evenodd" d="M178.721 132.414C180.192 131.815 181.505 130.817 182.465 129.542C182.798 129.099 182.885 128.631 182.815 128.203C182.736 127.722 182.45 127.286 182.061 126.993C181.67 126.699 181.181 126.555 180.709 126.628C180.298 126.693 179.89 126.917 179.566 127.382L179.499 127.474C178.928 128.244 178.185 128.875 177.338 129.282C176.521 129.674 175.608 129.858 174.663 129.751C172.864 129.548 171.623 128.578 170.305 127.26C170.141 127.094 169.978 126.922 169.814 126.748C169.71 126.59 169.566 126.488 169.406 126.435C169.228 126.376 169.028 126.379 168.844 126.443C168.666 126.505 168.508 126.622 168.401 126.778C168.3 126.926 168.243 127.108 168.261 127.319C168.382 128.684 169.098 129.903 170.115 130.86C171.245 131.923 172.743 132.658 174.152 132.916C175.706 133.2 177.288 132.996 178.721 132.414ZM173.42 111.347C171.767 112.349 169.249 114.684 171.027 117.166C173.12 119.355 176.132 116.845 177.617 115.71C178.993 114.831 180.54 117.093 179.263 118.12C168.535 126.039 164.182 111.609 172.584 110.17C173.509 110.011 173.853 111.037 173.42 111.347ZM192.644 102.136C192.461 99.8762 189.01 99.3632 188.667 101.599C188.359 103.602 188.721 105.442 189.626 107.245C190.491 108.968 192.664 108.164 192.828 106.595C193.048 104.492 192.758 103.541 192.644 102.136ZM166.371 101.135C165.889 100.507 165.195 100.078 164.362 100.32C161.761 101.078 162.528 104.759 163.441 106.551C163.938 107.524 165.542 107.771 166.267 106.914C167.449 105.517 168.014 102.727 166.512 101.351C166.471 101.28 166.426 101.208 166.371 101.135ZM189.663 92.2489L189.252 92.1772C187.981 91.9581 186.401 91.7475 185.502 92.7662C185.025 93.3064 184.861 94.3104 185.502 94.8275C186.629 95.7373 187.875 95.3847 189.226 95.4617C190.34 95.5254 191.41 95.7091 192.482 96.0148C194.835 96.6852 196.752 97.9091 198.762 99.2531C199.026 99.4294 199.295 99.0932 199.169 98.8473C198.009 96.582 195.761 94.7212 193.509 93.587C192.307 92.9815 190.992 92.4793 189.663 92.2489ZM168.741 91.2343L168.427 91.2984C165.005 92.0115 160.559 93.436 158.939 96.787C158.877 97.2609 158.942 97.3624 158.995 97.4288L159.013 97.4509C159.057 97.5075 159.092 97.5856 159.298 97.6501C159.355 97.6365 159.413 97.6221 159.471 97.6069C160.214 97.4128 160.801 97.1455 161.37 96.8681L161.987 96.5651C162.703 96.2152 163.425 95.8781 164.19 95.6292C165.823 95.0982 167.503 94.7241 169.208 94.5244C169.578 94.4811 169.934 94.3567 170.215 94.1435C170.481 93.9412 170.685 93.661 170.778 93.2886C170.898 92.8066 170.864 92.4418 170.604 92.007C170.409 91.6804 170.13 91.4541 169.81 91.3242C169.483 91.1917 169.111 91.1604 168.741 91.2343Z" fill="black"/>
</svg>
