<svg xmlns="http://www.w3.org/2000/svg" xmlns:xlink="http://www.w3.org/1999/xlink" width="100%" height="100%" version="1.1" viewBox="0 0 1111 227" xml:space="preserve" style="fill-rule:evenodd;clip-rule:evenodd;stroke-linejoin:round;stroke-miterlimit:2"><g><g><g><text x="667.03" y="961.97" transform="matrix(1,0,0,1,-352.945,-2291.66) matrix(1,0,0,1,-200.498,1722.07) matrix(1,0,0,1,156.579,-217.487)" style="font-family:'Raleway-SemiBold','Raleway';font-weight:600;font-size:175px;fill:#24263d;stroke:#24263d;stroke-width:1px">CHAMA<tspan x="1293.53" y="961.97">T</tspan>T</text></g><g><g><path d="M461.458,842.372L536.811,971.599" transform="matrix(1,0,0,1,-352.945,-2291.66) matrix(1,0,0,1,-200.498,1722.07) matrix(1,0,0,1,61.3216,-204.994) matrix(0.955031,0,0,0.602338,62.873,404.873)" style="fill:none;stroke:#24263d;stroke-width:28.7px;stroke-linecap:round;stroke-miterlimit:1.5"/></g><g><path d="M461.458,842.372L536.811,971.599" transform="matrix(1,0,0,1,-352.945,-2291.66) matrix(1,0,0,1,-200.498,1722.07) matrix(1,0,0,1,61.3216,-204.994) matrix(0.955031,0,0,0.602338,109.819,357.659)" style="fill:none;stroke:#24263d;stroke-width:28.7px;stroke-linecap:round;stroke-miterlimit:1.5"/></g><path d="M550.526,865.052L628.199,786.042" transform="matrix(1,0,0,1,-352.945,-2291.66) matrix(1,0,0,1,-200.498,1722.07) matrix(1,0,0,1,61.3216,-204.994)" style="fill:none;stroke:#24263d;stroke-width:22.92px;stroke-linecap:round;stroke-miterlimit:1.5"/><path d="M622.49,942.89L707.665,862.958" transform="matrix(1,0,0,1,-352.945,-2291.66) matrix(1,0,0,1,-200.498,1722.07) matrix(1,0,0,1,61.3216,-204.994)" style="fill:none;stroke:#24263d;stroke-width:22.92px;stroke-linecap:round;stroke-miterlimit:1.5"/></g></g></g></svg>