<?xml version="1.0" encoding="UTF-8" standalone="no"?>
<!DOCTYPE svg PUBLIC "-//W3C//DTD SVG 1.1//EN" "http://www.w3.org/Graphics/SVG/1.1/DTD/svg11.dtd">
<svg width="100%" height="100%" viewBox="0 0 214 158" version="1.1" xmlns="http://www.w3.org/2000/svg" xmlns:xlink="http://www.w3.org/1999/xlink" xml:space="preserve" xmlns:serif="http://www.serif.com/" style="fill-rule:evenodd;clip-rule:evenodd;stroke-linejoin:round;stroke-miterlimit:2;">
    <g transform="matrix(1,0,0,1,-456.608,-1965.08)">
        <g id="Descola" transform="matrix(0.466396,0,0,0.466396,563.126,2043.79)">
            <g transform="matrix(1,0,0,1,-228.386,-168.769)">
                <clipPath id="_clip1">
                    <rect x="0" y="0" width="456.772" height="337.539"/>
                </clipPath>
                <g clip-path="url(#_clip1)">
                    <g id="g3779" transform="matrix(1,0,0,1,52.5118,-13.1687)">
                        <path id="path3781" d="M12.76,288.403C-19.69,253.858 -48.367,223.269 -50.967,220.428C-55.693,215.262 -55.693,215.262 42.959,114.377C97.218,58.89 141.965,13.348 142.397,13.171C142.829,12.995 154.315,21.32 167.923,31.671C181.531,42.023 193.435,51.053 194.376,51.738C195.879,52.832 196.928,51.932 202.925,44.401C209.76,35.816 209.76,35.816 242.26,36.415C274.76,37.014 274.76,37.014 306.14,30.156C337.521,23.299 337.521,23.299 336.898,29.895C336.555,33.523 336.26,39.192 336.242,42.492C336.21,48.492 336.21,48.492 319.728,58.401C310.662,63.851 303.419,68.484 303.632,68.697C303.845,68.91 312.165,69.43 322.121,69.852C332.077,70.275 340.438,70.836 340.702,71.1C340.965,71.364 341.311,92.442 341.471,117.941C341.76,164.302 341.76,164.302 306.26,172.567C270.76,180.831 270.76,180.831 146.76,194.402C78.56,201.866 16.02,208.68 7.783,209.543C-7.196,211.113 -11.524,211.998 -4.156,211.985C-2.002,211.981 76.035,208.178 169.26,203.534C262.484,198.89 339.061,195.406 339.43,195.791C341.01,197.442 404.26,323.822 404.26,325.329C404.26,326.8 402.672,326.989 390.51,326.972C376.76,326.951 376.76,326.951 355.341,320.017C343.561,316.203 333.548,313.314 333.091,313.596C332.634,313.879 332.26,317.008 332.26,320.551C332.26,324.093 332.148,327.049 332.01,327.12C331.873,327.191 312.185,328.23 288.26,329.43C244.76,331.611 244.76,331.611 236.819,328.802C232.451,327.256 228.59,325.992 228.238,325.992C227.725,325.992 223.493,331.363 220.162,336.242C219.542,337.15 171.268,348.992 168.188,348.992C167.23,348.992 161.613,346.967 155.706,344.492C149.798,342.017 144.356,339.992 143.612,339.992C142.656,339.992 142.26,341.457 142.26,344.992C142.26,349.992 142.26,349.992 112.907,349.992C96.763,349.992 80.9,350.267 77.657,350.603C71.76,351.213 71.76,351.213 12.76,288.403ZM122.51,343.333C135.26,342.683 135.26,342.683 135.26,333.364C135.26,324.045 135.26,324.045 112.76,324.678C90.26,325.31 90.26,325.31 90.244,322.901C90.235,321.576 89.339,305.417 88.253,286.992C85.571,241.496 85.269,245.989 91.01,246.005C93.623,246.012 103.748,245.265 113.51,244.346C131.26,242.674 131.26,242.674 131.26,234.392C131.26,229.837 130.923,225.928 130.51,225.707C129.439,225.131 70.882,231.103 70.162,231.862C69.722,232.325 74.644,342.235 75.172,343.742C75.354,344.259 110.268,343.958 122.51,343.333ZM193.76,335.88C215.76,330.72 215.76,330.72 219.507,325.42C223.255,320.119 223.255,320.119 221.765,282.306C220.946,261.508 220.272,241.276 220.268,237.345C220.26,230.198 220.26,230.198 213.366,224.086C205.834,217.408 211.075,217.362 152.859,224.611C147.957,225.221 147.957,225.221 148.599,244.856C148.951,255.656 149.521,277.542 149.865,293.492C150.208,309.442 150.775,323.965 151.125,325.765C151.62,328.317 153.522,330.456 159.76,335.476C165.213,339.863 168.397,341.774 169.76,341.477C170.86,341.237 181.66,338.718 193.76,335.88ZM166.31,322.848C163.86,319.693 163.86,319.693 163.082,279.654C162.653,257.633 162.409,239.51 162.538,239.38C162.668,239.251 171.752,237.936 182.724,236.459C209.736,232.822 207.463,229.604 209.231,273.992C209.811,288.567 210.541,303.431 210.853,307.023C211.416,313.518 211.398,313.578 207.59,317.663C203.76,321.771 203.76,321.771 189.76,323.452C182.06,324.376 174.185,325.328 172.26,325.568C169.264,325.94 168.407,325.549 166.31,322.848ZM273.76,322.486C282.01,322.173 290.898,321.666 293.51,321.36C298.26,320.804 298.26,320.804 298.26,312.398C298.26,302.509 300.499,303.282 278.26,305.492C270.285,306.284 261.96,306.945 259.76,306.96C255.76,306.988 255.76,306.988 255.484,300.74C252.872,241.591 251.243,209.641 250.818,209.216C250.213,208.611 237.308,210.611 236.481,211.437C235.853,212.066 240.065,303.927 240.931,308.492C241.244,310.142 242.637,314.35 244.027,317.843C246.554,324.193 246.554,324.193 252.657,323.625C256.014,323.312 265.51,322.8 273.76,322.486ZM394.976,319.742C394.702,319.054 381.23,292.392 365.037,260.492C335.597,202.492 335.597,202.492 326.929,202.203C319.143,201.943 318.26,202.097 318.26,203.713C318.26,207.168 313.327,307.546 312.853,313.742C312.375,319.992 312.375,319.992 318.817,319.992C323.233,319.992 325.303,319.598 325.396,318.742C325.47,318.054 325.808,310.292 326.146,301.492C326.76,285.492 326.76,285.492 337.26,284.327C343.035,283.687 351.098,283.012 355.177,282.827C362.594,282.492 362.594,282.492 370.638,300.992C375.062,311.167 379.15,319.822 379.721,320.226C380.293,320.63 384.071,320.968 388.117,320.976C393.606,320.988 395.348,320.674 394.976,319.742ZM329.475,247.784C329.869,233.873 330.319,220.993 330.475,219.162C330.713,216.384 332.853,220.446 343.385,243.662C350.328,258.968 355.953,271.544 355.885,271.608C355.816,271.673 349.685,272.029 342.26,272.401C328.76,273.077 328.76,273.077 329.475,247.784ZM168.869,157.099C186.978,147.932 186.978,147.932 187.658,138.712C188.033,133.641 189.693,114.661 191.347,96.535C193.002,78.409 194.222,62.344 194.058,60.835C193.809,58.541 189.921,55.215 170.323,40.528C157.433,30.869 146.592,23.309 146.231,23.728C145.871,24.148 144.372,37.992 142.9,54.492C141.428,70.992 138.432,103.839 136.242,127.485C134.052,151.132 132.26,171.758 132.26,173.321C132.26,176.164 132.26,176.164 141.51,171.215C146.598,168.493 158.909,162.141 168.869,157.099ZM147.26,151.148C147.26,150.134 149.043,132.247 151.221,111.398C156.463,61.231 157.421,52.55 157.757,52.186C157.912,52.017 163.939,55.378 171.149,59.654C179.026,64.324 184.246,68.039 184.224,68.96C184.047,76.513 177.332,140.299 176.65,140.912C175.788,141.689 148.748,152.992 147.754,152.992C147.483,152.992 147.26,152.162 147.26,151.148ZM303.831,162.992C320.735,159.142 334.722,155.992 334.913,155.992C335.104,155.992 335.26,138.051 335.26,116.123C335.26,70.533 337.127,75.024 318.167,75.003C312.891,74.997 303.087,74.697 296.381,74.336C284.187,73.68 284.187,73.68 284.474,65.086C284.76,56.492 284.76,56.492 307.01,48.995C329.26,41.499 329.26,41.499 329.26,35.726C329.26,30.248 329.146,29.981 327.01,30.489C325.773,30.784 313.96,33.291 300.76,36.061C287.56,38.83 276.488,41.41 276.155,41.794C275.703,42.314 272.783,74.247 271.849,88.883C271.775,90.041 275.902,90.238 296.51,90.06C321.26,89.847 321.26,89.847 321.273,100.669C321.28,106.622 321.567,119.149 321.91,128.509C322.534,145.526 322.534,145.526 297.147,149.849C283.184,152.227 271.71,154.244 271.65,154.332C271.589,154.42 271.257,157.979 270.912,162.242C270.404,168.529 270.551,169.992 271.691,169.992C272.464,169.992 286.927,166.842 303.831,162.992ZM247.054,153.742C246.828,148.169 246.413,146.461 245.26,146.357C244.435,146.283 238.248,146.171 231.51,146.107C219.26,145.992 219.26,145.992 219.26,140.143C219.26,136.926 219.542,130.956 219.887,126.877C220.514,119.461 220.514,119.461 237.887,119.84C255.26,120.219 255.26,120.219 255.26,112.105C255.26,103.992 255.26,103.992 238.76,103.992C222.26,103.992 222.26,103.992 222.289,101.242C222.304,99.729 222.969,90.392 223.767,80.492C224.565,70.592 225.227,61.479 225.239,60.242C225.26,57.995 225.285,57.992 242.76,57.992C260.26,57.992 260.26,57.992 260.26,50.145C260.26,42.297 260.26,42.297 249.01,41.649C242.823,41.293 232.268,40.999 225.555,40.996C213.351,40.992 213.351,40.992 212.804,44.242C212.295,47.27 205.586,141.826 205.017,153.992C204.76,159.492 204.76,159.492 220.26,160.031C228.785,160.328 238.367,160.666 241.554,160.781C247.348,160.992 247.348,160.992 247.054,153.742Z" style="fill-rule:nonzero;"/>
                    </g>
                </g>
            </g>
        </g>
    </g>
</svg>
