<svg xmlns="http://www.w3.org/2000/svg" xmlns:xlink="http://www.w3.org/1999/xlink" id="svg" width="400" height="100" version="1.1" viewBox="0 0 400 100"><g id="svgg"><path id="path0" fill="#000" fill-rule="evenodd" stroke="none" d="M246.151 12.694 C 245.253 12.934,242.918 15.215,242.683 16.083 C 242.583 16.450,242.501 18.044,242.501 19.625 L 242.500 22.500 240.792 22.504 C 237.917 22.511,235.721 23.582,234.837 25.410 C 234.635 25.826,234.421 26.163,234.360 26.160 C 234.125 26.145,233.528 24.995,233.419 24.347 C 233.195 23.022,230.750 20.999,228.963 20.660 C 226.017 20.101,223.270 20.990,221.839 22.965 C 221.247 23.782,221.117 23.807,220.303 23.254 C 219.969 23.027,219.333 22.760,218.890 22.661 C 218.446 22.561,217.924 22.330,217.728 22.146 C 217.496 21.928,216.921 21.740,216.062 21.601 C 215.340 21.485,214.498 21.258,214.190 21.098 C 212.691 20.317,204.189 20.291,202.609 21.063 C 202.136 21.293,201.338 21.530,200.833 21.588 C 200.329 21.647,199.504 21.903,199.000 22.157 C 198.496 22.411,197.875 22.669,197.621 22.731 C 197.366 22.792,196.795 23.065,196.352 23.338 C 195.909 23.610,195.495 23.833,195.432 23.833 C 195.213 23.833,192.908 25.477,191.833 26.399 C 191.237 26.910,190.696 27.330,190.631 27.331 C 190.566 27.332,190.329 27.603,190.105 27.932 C 189.882 28.261,189.260 29.006,188.724 29.587 C 187.202 31.237,186.199 32.688,185.675 34.000 C 185.547 34.321,185.315 34.771,185.159 35.000 C 185.004 35.229,184.752 35.848,184.600 36.375 C 184.448 36.902,184.259 37.333,184.180 37.333 C 184.101 37.333,183.924 37.614,183.787 37.958 L 183.537 38.583 183.269 37.680 C 183.122 37.184,182.897 36.659,182.770 36.514 C 182.643 36.369,182.416 35.819,182.265 35.292 C 182.114 34.765,181.923 34.333,181.841 34.333 C 181.758 34.333,181.494 33.940,181.254 33.458 C 180.652 32.250,180.169 31.502,179.628 30.934 C 179.374 30.668,179.167 30.376,179.167 30.284 C 179.167 29.636,173.654 24.797,171.889 23.897 C 171.508 23.702,170.982 23.391,170.721 23.205 C 170.460 23.020,169.948 22.786,169.582 22.686 C 169.216 22.586,168.670 22.353,168.369 22.168 C 168.068 21.983,167.191 21.730,166.419 21.607 C 165.647 21.483,164.820 21.253,164.580 21.096 C 163.312 20.266,154.370 20.305,152.695 21.148 C 152.359 21.318,151.612 21.538,151.036 21.637 C 150.460 21.737,149.784 21.964,149.535 22.142 C 149.285 22.320,148.749 22.555,148.343 22.664 C 147.938 22.773,147.376 23.035,147.095 23.245 C 146.813 23.456,146.410 23.681,146.197 23.745 C 145.582 23.933,143.075 25.681,141.474 27.040 C 140.366 27.980,138.363 30.299,137.836 31.250 C 137.633 31.617,137.332 32.067,137.166 32.250 C 137.001 32.433,136.750 32.846,136.608 33.167 C 136.467 33.487,136.240 33.938,136.103 34.167 C 135.508 35.165,134.706 36.967,134.599 37.546 C 134.535 37.893,134.340 38.418,134.166 38.713 C 133.600 39.672,133.469 41.374,133.528 46.966 L 133.583 52.250 134.024 53.167 C 134.266 53.671,134.559 54.494,134.674 54.997 C 134.790 55.499,135.024 56.137,135.195 56.413 C 135.365 56.690,135.583 57.206,135.680 57.560 C 135.777 57.914,136.141 58.627,136.488 59.144 C 136.836 59.660,137.403 60.533,137.749 61.083 C 138.491 62.265,142.998 66.812,143.933 67.322 C 144.980 67.894,146.182 68.658,146.441 68.917 C 146.573 69.050,146.994 69.242,147.377 69.345 C 147.759 69.448,148.248 69.671,148.463 69.840 C 148.678 70.009,149.280 70.234,149.802 70.340 C 150.323 70.447,151.162 70.732,151.667 70.975 L 152.583 71.417 159.250 71.417 L 165.917 71.417 166.917 70.970 C 167.467 70.724,168.257 70.478,168.674 70.423 C 169.091 70.368,169.878 70.101,170.424 69.829 C 170.970 69.557,171.535 69.334,171.680 69.334 C 171.824 69.334,172.274 69.122,172.680 68.864 C 173.085 68.606,173.904 68.106,174.500 67.752 C 176.577 66.518,178.808 64.500,179.252 63.453 C 179.416 63.066,179.707 62.413,179.900 62.000 C 180.635 60.425,180.420 58.980,179.037 56.187 C 178.688 55.484,176.508 53.846,175.591 53.599 C 174.963 53.429,175.042 53.410,176.750 53.322 C 178.104 53.253,178.780 53.137,179.333 52.881 C 179.746 52.690,180.369 52.457,180.718 52.361 C 181.067 52.266,181.646 51.923,182.006 51.598 C 182.994 50.705,183.367 51.057,183.583 53.083 C 183.642 53.633,183.869 54.433,184.089 54.860 C 184.308 55.288,184.576 56.000,184.683 56.444 C 184.791 56.887,185.056 57.489,185.273 57.781 C 185.489 58.072,185.667 58.380,185.667 58.464 C 185.667 58.548,185.892 58.927,186.167 59.307 C 186.442 59.687,186.667 60.073,186.667 60.165 C 186.667 60.257,186.914 60.614,187.217 60.958 C 187.519 61.302,188.186 62.146,188.697 62.833 C 189.634 64.091,191.245 65.689,192.439 66.545 C 192.793 66.799,193.421 67.249,193.833 67.545 C 194.246 67.841,194.865 68.232,195.208 68.413 C 195.552 68.594,195.833 68.797,195.833 68.865 C 195.833 68.932,196.325 69.138,196.926 69.324 C 197.527 69.510,198.130 69.772,198.265 69.908 C 198.502 70.145,199.517 70.497,199.969 70.499 C 200.089 70.500,200.614 70.706,201.135 70.958 L 202.083 71.417 208.340 71.417 L 214.597 71.417 215.445 70.977 C 215.912 70.735,216.677 70.484,217.146 70.419 C 217.616 70.355,218.261 70.125,218.580 69.908 C 218.899 69.692,219.443 69.435,219.788 69.338 C 220.134 69.241,220.562 69.050,220.740 68.914 C 221.219 68.548,221.462 68.609,221.752 69.171 C 221.993 69.637,222.218 69.874,223.316 70.820 C 224.089 71.487,228.488 71.802,230.237 71.317 C 231.520 70.960,233.485 68.680,233.496 67.535 C 233.498 67.325,233.669 66.925,233.875 66.646 L 234.250 66.139 234.333 49.111 L 234.417 32.083 234.805 32.865 C 235.544 34.351,237.142 35.496,238.480 35.499 C 238.699 35.500,239.139 35.662,239.459 35.860 C 239.868 36.112,240.407 36.243,241.271 36.298 L 242.500 36.377 242.500 46.347 C 242.500 56.561,242.557 57.616,243.159 58.500 C 243.315 58.729,243.539 59.367,243.656 59.917 C 243.773 60.467,244.035 61.142,244.238 61.417 C 244.442 61.692,244.658 62.054,244.720 62.221 C 245.006 62.996,246.992 65.619,248.160 66.764 C 249.370 67.951,249.864 68.321,251.333 69.142 C 251.654 69.321,252.099 69.627,252.322 69.822 C 252.546 70.016,252.921 70.219,253.156 70.273 C 253.391 70.326,254.071 70.605,254.667 70.893 L 255.750 71.417 259.250 71.417 C 263.185 71.417,263.163 71.422,264.500 70.118 C 265.364 69.277,266.120 68.101,266.362 67.223 L 266.530 66.614 266.926 67.266 C 267.143 67.624,267.520 68.311,267.764 68.793 C 268.261 69.777,269.518 70.927,270.467 71.265 C 271.260 71.548,304.698 71.605,305.707 71.325 C 306.725 71.042,308.204 69.635,309.114 68.083 C 309.870 66.793,309.571 62.578,308.633 61.301 C 306.532 58.439,306.796 58.500,296.408 58.500 C 290.454 58.500,288.167 58.448,288.167 58.314 C 288.167 58.101,289.220 56.590,289.737 56.063 C 290.274 55.514,291.118 54.506,291.882 53.500 C 292.265 52.996,292.880 52.258,293.248 51.861 C 293.616 51.463,293.986 51.013,294.072 50.861 C 294.157 50.708,294.742 49.997,295.373 49.280 C 296.003 48.563,296.948 47.401,297.472 46.697 C 297.997 45.993,298.799 45.016,299.255 44.526 C 299.711 44.036,300.158 43.498,300.250 43.331 C 300.342 43.165,300.717 42.703,301.083 42.306 C 301.796 41.534,302.583 40.553,303.015 39.899 C 303.161 39.678,303.723 39.020,304.265 38.436 C 304.807 37.853,305.728 36.729,306.311 35.940 C 306.895 35.152,307.533 34.332,307.728 34.118 C 307.923 33.905,308.276 33.478,308.512 33.169 C 309.054 32.459,309.410 32.569,309.688 33.533 C 309.801 33.927,310.022 34.438,310.180 34.668 C 310.337 34.898,310.551 35.406,310.657 35.796 C 310.762 36.186,310.988 36.748,311.160 37.044 C 311.331 37.341,311.567 37.921,311.683 38.333 C 311.799 38.746,312.026 39.276,312.187 39.512 C 312.348 39.747,312.567 40.285,312.673 40.706 C 312.779 41.127,312.997 41.613,313.158 41.786 C 313.319 41.959,313.541 42.474,313.650 42.932 C 313.760 43.390,314.071 44.203,314.342 44.739 C 314.612 45.275,314.833 45.823,314.833 45.956 C 314.833 46.089,314.976 46.398,315.149 46.642 C 315.323 46.887,315.548 47.386,315.649 47.752 C 315.750 48.117,316.058 48.858,316.333 49.398 C 316.608 49.938,316.833 50.475,316.833 50.590 C 316.833 50.705,317.020 51.126,317.248 51.525 C 317.476 51.924,317.664 52.408,317.665 52.602 C 317.666 52.795,317.858 53.235,318.091 53.579 C 318.325 53.923,318.561 54.440,318.615 54.728 C 318.670 55.015,318.885 55.550,319.093 55.917 C 319.301 56.283,319.566 56.921,319.682 57.333 C 319.799 57.746,320.026 58.276,320.187 58.512 C 320.348 58.747,320.567 59.285,320.673 59.706 C 320.779 60.127,320.997 60.613,321.158 60.786 C 321.319 60.959,321.547 61.499,321.664 61.988 C 321.781 62.476,322.054 63.185,322.270 63.563 C 322.486 63.941,322.664 64.408,322.665 64.602 C 322.666 64.795,322.854 65.230,323.083 65.567 C 323.667 66.428,323.612 67.076,322.810 68.782 C 321.982 70.542,319.174 73.524,318.152 73.728 C 317.851 73.788,317.473 73.957,317.312 74.103 C 317.150 74.249,316.488 74.470,315.841 74.593 C 314.174 74.910,312.108 76.735,311.683 78.263 C 311.466 79.045,311.447 82.987,311.656 83.886 C 311.865 84.787,314.150 87.105,315.075 87.354 C 316.487 87.734,321.482 87.476,322.333 86.979 C 322.746 86.738,323.325 86.488,323.619 86.425 C 323.914 86.361,324.425 86.126,324.755 85.902 C 325.085 85.679,325.619 85.385,325.942 85.250 C 326.265 85.115,326.767 84.811,327.057 84.574 C 327.346 84.337,327.834 83.942,328.139 83.696 C 330.607 81.715,333.157 78.812,334.164 76.839 C 334.347 76.480,334.680 75.917,334.903 75.588 C 335.126 75.258,335.362 74.751,335.426 74.459 C 335.490 74.168,335.684 73.738,335.857 73.504 C 336.030 73.270,336.267 72.629,336.384 72.081 C 336.501 71.532,336.762 70.821,336.964 70.500 C 337.167 70.179,337.333 69.804,337.333 69.667 C 337.334 69.529,337.551 68.981,337.816 68.449 C 338.081 67.917,338.349 67.144,338.411 66.731 C 338.473 66.318,338.702 65.718,338.920 65.396 C 339.138 65.075,339.368 64.468,339.431 64.047 C 339.494 63.625,339.714 63.033,339.920 62.729 C 340.126 62.426,340.345 61.909,340.406 61.581 C 340.468 61.252,340.695 60.651,340.910 60.246 C 341.126 59.840,341.357 59.187,341.423 58.796 C 341.489 58.404,341.676 57.914,341.838 57.706 C 342.001 57.499,342.227 56.941,342.341 56.467 C 342.455 55.992,342.683 55.374,342.847 55.094 C 343.011 54.813,343.238 54.208,343.351 53.750 C 343.465 53.292,343.725 52.600,343.930 52.212 C 344.135 51.825,344.357 51.187,344.423 50.796 C 344.489 50.404,344.676 49.914,344.838 49.706 C 345.001 49.499,345.227 48.941,345.341 48.467 C 345.455 47.992,345.683 47.374,345.847 47.094 C 346.011 46.813,346.236 46.208,346.347 45.750 C 346.458 45.292,346.722 44.617,346.933 44.250 C 347.144 43.883,347.369 43.250,347.434 42.844 C 347.499 42.437,347.722 41.855,347.929 41.550 C 348.136 41.245,348.357 40.687,348.421 40.310 C 348.484 39.932,348.673 39.390,348.841 39.104 C 349.008 38.817,349.238 38.208,349.351 37.750 C 349.464 37.292,349.695 36.728,349.864 36.497 C 350.033 36.267,350.267 35.629,350.384 35.081 C 350.501 34.532,350.756 33.831,350.950 33.522 C 351.145 33.213,351.353 32.688,351.413 32.355 C 351.473 32.022,351.677 31.424,351.866 31.027 C 352.483 29.732,352.475 28.073,351.848 27.350 C 351.677 27.153,351.486 26.655,351.425 26.245 C 351.308 25.467,350.525 24.266,349.917 23.932 C 349.734 23.832,349.315 23.547,348.985 23.298 C 347.983 22.543,344.829 22.221,342.870 22.673 C 341.069 23.088,339.062 25.177,338.676 27.040 C 338.570 27.551,338.342 28.132,338.169 28.330 C 337.997 28.529,337.776 29.064,337.678 29.518 C 337.581 29.973,337.355 30.632,337.175 30.983 C 336.996 31.334,336.759 31.988,336.649 32.436 C 336.539 32.884,336.320 33.438,336.161 33.667 C 336.003 33.896,335.777 34.518,335.659 35.049 C 335.541 35.579,335.312 36.166,335.150 36.353 C 334.988 36.539,334.776 37.063,334.679 37.516 C 334.582 37.970,334.324 38.695,334.107 39.129 C 333.890 39.562,333.659 40.206,333.595 40.561 C 333.531 40.915,333.340 41.352,333.172 41.533 C 333.003 41.714,332.775 42.340,332.665 42.926 C 332.554 43.511,332.327 44.148,332.160 44.341 C 331.992 44.534,331.776 45.064,331.678 45.518 C 331.497 46.363,330.958 47.570,330.687 47.737 C 330.604 47.788,330.486 47.550,330.424 47.207 C 330.362 46.864,330.139 46.319,329.928 45.997 C 329.718 45.674,329.424 44.990,329.275 44.477 C 329.125 43.964,328.896 43.454,328.765 43.346 C 328.633 43.237,328.476 42.849,328.414 42.485 C 328.352 42.120,328.122 41.607,327.901 41.345 C 327.680 41.083,327.500 40.720,327.500 40.539 C 327.500 40.089,327.043 38.825,326.765 38.508 C 326.641 38.366,326.417 37.825,326.269 37.305 C 326.120 36.786,325.922 36.335,325.828 36.304 C 325.734 36.273,325.554 35.856,325.428 35.378 C 325.302 34.900,325.050 34.263,324.868 33.963 C 324.686 33.662,324.417 32.995,324.270 32.480 C 324.124 31.965,323.896 31.454,323.765 31.346 C 323.633 31.237,323.476 30.849,323.414 30.485 C 323.352 30.120,323.135 29.618,322.931 29.369 C 322.727 29.120,322.467 28.490,322.354 27.969 C 322.240 27.447,322.017 26.847,321.858 26.635 C 321.699 26.423,321.431 25.937,321.264 25.554 C 320.964 24.865,320.322 24.134,319.701 23.771 C 319.524 23.668,319.061 23.361,318.671 23.090 C 317.998 22.623,317.858 22.594,315.932 22.530 C 312.582 22.418,311.413 22.892,309.788 25.022 C 309.117 25.902,309.048 25.900,308.355 24.990 C 307.531 23.906,306.076 22.874,305.080 22.666 C 303.428 22.323,271.201 22.525,270.481 22.883 C 269.586 23.329,268.413 24.429,267.801 25.395 C 267.504 25.865,267.205 26.290,267.138 26.339 C 267.070 26.388,266.909 26.678,266.781 26.984 L 266.547 27.540 266.353 26.984 C 265.742 25.232,263.640 23.116,262.083 22.686 C 261.713 22.584,260.102 22.501,258.458 22.501 L 255.500 22.500 255.500 19.776 C 255.500 16.002,255.375 15.652,253.333 13.715 C 252.110 12.554,248.565 12.050,246.151 12.694 M267.661 32.958 C 267.960 33.531,268.253 34.002,268.311 34.004 C 268.369 34.006,268.704 34.267,269.056 34.583 C 269.594 35.068,270.525 35.495,271.051 35.499 C 271.125 35.500,271.537 35.669,271.967 35.875 C 272.738 36.244,272.866 36.251,280.083 36.294 C 288.484 36.343,288.058 36.294,287.307 37.127 C 286.998 37.469,286.297 38.350,285.748 39.082 C 285.199 39.815,283.844 41.472,282.736 42.765 C 281.629 44.058,280.505 45.408,280.239 45.766 C 279.973 46.124,279.303 46.943,278.750 47.586 C 278.197 48.229,277.298 49.354,276.752 50.086 C 276.206 50.818,275.007 52.270,274.088 53.313 C 273.169 54.356,272.004 55.754,271.500 56.418 C 270.996 57.083,270.004 58.311,269.296 59.147 C 268.588 59.983,267.848 61.042,267.651 61.500 C 267.454 61.958,267.235 62.333,267.164 62.333 C 267.093 62.333,266.927 62.605,266.795 62.937 L 266.554 63.540 266.337 62.763 C 266.217 62.336,265.924 61.730,265.685 61.416 C 265.446 61.102,265.123 60.665,264.967 60.444 C 264.470 59.741,262.905 58.831,261.792 58.598 C 261.219 58.478,260.451 58.219,260.086 58.023 C 259.720 57.827,259.345 57.666,259.252 57.665 C 258.474 57.657,256.667 55.495,256.256 54.079 C 256.099 53.539,255.865 52.947,255.735 52.762 C 255.541 52.484,255.500 51.039,255.500 44.380 L 255.500 36.333 257.680 36.333 C 259.597 36.333,259.984 36.284,260.888 35.927 C 261.454 35.704,262.203 35.470,262.552 35.407 C 263.731 35.194,266.333 32.382,266.333 31.319 C 266.333 30.807,266.569 30.830,266.842 31.370 C 266.993 31.671,267.362 32.385,267.661 32.958 M162.770 34.919 C 163.199 35.147,163.662 35.333,163.799 35.333 C 164.412 35.333,168.667 38.888,168.667 39.400 C 168.667 39.455,164.317 39.500,159.000 39.500 C 148.512 39.500,148.970 39.545,149.708 38.584 C 150.516 37.533,153.012 35.584,153.789 35.397 C 154.043 35.336,154.550 35.131,154.917 34.941 C 156.364 34.193,161.379 34.179,162.770 34.919 M212.181 34.819 C 212.418 34.993,212.886 35.211,213.221 35.304 C 213.556 35.397,214.037 35.632,214.290 35.828 C 214.543 36.024,215.175 36.463,215.694 36.803 C 217.177 37.775,219.667 41.342,219.667 42.494 C 219.667 42.747,219.854 43.230,220.083 43.567 C 220.705 44.484,220.705 47.510,220.083 48.737 C 219.854 49.188,219.666 49.750,219.664 49.987 C 219.663 50.223,219.569 50.578,219.456 50.775 C 219.343 50.972,218.987 51.608,218.667 52.187 C 217.746 53.851,214.582 56.833,213.738 56.833 C 213.691 56.833,213.450 56.981,213.202 57.161 C 212.953 57.341,212.300 57.560,211.750 57.647 C 211.200 57.735,210.412 57.961,210.000 58.150 C 208.974 58.619,207.449 58.620,206.682 58.153 C 206.370 57.962,205.664 57.734,205.113 57.645 C 204.563 57.557,203.918 57.347,203.681 57.181 C 203.444 57.014,203.063 56.819,202.833 56.748 C 201.131 56.222,197.876 52.545,197.272 50.466 C 197.124 49.959,196.890 49.450,196.752 49.335 C 196.387 49.032,196.378 43.142,196.741 42.841 C 196.874 42.731,197.115 42.290,197.277 41.862 C 197.440 41.434,197.744 40.829,197.953 40.518 C 198.162 40.208,198.333 39.855,198.333 39.735 C 198.333 39.615,198.502 39.334,198.708 39.109 C 198.915 38.885,199.242 38.524,199.436 38.309 C 200.375 37.265,201.510 36.343,202.417 35.887 C 205.564 34.304,205.445 34.329,209.333 34.436 C 211.378 34.492,211.816 34.551,212.181 34.819 M170.833 53.617 C 170.421 53.759,169.521 54.297,168.833 54.812 C 168.146 55.327,167.416 55.838,167.211 55.947 C 167.006 56.055,166.670 56.262,166.465 56.406 C 166.260 56.549,165.977 56.667,165.837 56.667 C 165.696 56.667,165.244 56.846,164.832 57.065 C 164.420 57.283,163.550 57.545,162.898 57.646 C 162.246 57.747,161.383 57.979,160.981 58.161 C 159.977 58.616,158.301 58.617,157.410 58.163 C 157.047 57.978,156.269 57.750,155.682 57.656 C 155.095 57.562,154.408 57.339,154.156 57.159 C 153.905 56.980,153.646 56.833,153.583 56.833 C 152.950 56.833,149.223 53.813,149.435 53.471 C 149.481 53.395,154.484 53.339,160.552 53.346 C 170.727 53.359,171.525 53.380,170.833 53.617 M66.250 61.789 C 66.067 61.835,65.729 62.003,65.500 62.164 C 65.271 62.324,64.612 62.537,64.036 62.637 C 63.460 62.737,62.777 62.969,62.519 63.153 C 62.261 63.337,61.720 63.563,61.316 63.655 C 60.468 63.849,56.905 65.629,55.930 66.346 C 55.566 66.614,55.183 66.833,55.080 66.833 C 54.455 66.833,50.165 70.964,49.715 72.000 C 49.576 72.321,49.325 72.776,49.158 73.012 C 48.990 73.247,48.768 73.810,48.663 74.262 C 48.559 74.714,48.327 75.360,48.148 75.699 C 47.586 76.763,47.545 78.317,48.044 79.630 C 48.279 80.246,48.558 81.136,48.664 81.607 C 48.771 82.078,48.999 82.614,49.171 82.799 C 49.343 82.984,49.644 83.477,49.841 83.896 C 50.260 84.788,53.158 87.652,54.157 88.162 C 54.516 88.345,54.858 88.572,54.916 88.666 C 55.269 89.237,60.953 92.114,62.319 92.414 C 62.632 92.482,63.217 92.713,63.619 92.927 C 64.020 93.140,64.702 93.362,65.133 93.419 C 65.564 93.476,66.292 93.703,66.750 93.924 C 67.272 94.177,68.050 94.369,68.833 94.440 C 69.521 94.502,70.354 94.693,70.686 94.865 C 71.452 95.262,72.891 95.498,74.551 95.499 C 75.515 95.500,76.050 95.590,76.619 95.849 C 77.868 96.419,80.255 96.532,89.750 96.472 L 98.583 96.417 99.500 95.978 C 100.300 95.596,100.685 95.530,102.529 95.463 C 104.367 95.395,104.758 95.329,105.529 94.955 C 106.162 94.648,106.787 94.501,107.707 94.442 C 108.585 94.386,109.284 94.228,109.896 93.947 C 110.391 93.721,111.123 93.481,111.523 93.414 C 111.923 93.348,112.587 93.125,113.000 92.919 C 113.412 92.714,114.140 92.454,114.617 92.342 C 115.093 92.229,115.571 92.032,115.678 91.903 C 115.785 91.775,116.385 91.516,117.013 91.330 C 117.640 91.143,118.199 90.916,118.255 90.826 C 118.310 90.735,118.631 90.547,118.967 90.406 C 119.304 90.266,119.730 90.012,119.914 89.841 C 120.099 89.671,120.533 89.416,120.878 89.273 C 121.981 88.819,125.074 86.172,126.262 84.667 C 126.659 84.162,127.307 83.112,127.701 82.333 L 128.417 80.917 128.417 77.833 C 128.417 74.511,128.476 74.801,127.370 72.739 C 126.303 70.753,122.482 66.833,121.611 66.833 C 121.559 66.833,121.194 66.618,120.800 66.354 C 120.406 66.091,119.896 65.818,119.667 65.747 C 119.438 65.676,119.025 65.452,118.750 65.249 C 118.475 65.046,118.003 64.797,117.701 64.696 C 117.399 64.595,116.941 64.362,116.684 64.179 C 116.427 63.996,115.849 63.764,115.400 63.664 C 114.951 63.564,114.328 63.332,114.017 63.148 C 113.705 62.965,113.070 62.743,112.606 62.655 C 112.142 62.567,111.446 62.342,111.061 62.156 C 109.415 61.359,106.833 61.947,106.833 63.120 C 106.833 63.261,106.590 63.660,106.292 64.007 C 105.006 65.503,104.833 65.836,104.834 66.819 C 104.835 68.384,105.493 69.098,107.236 69.425 C 107.595 69.492,108.149 69.724,108.467 69.940 C 108.786 70.157,109.167 70.335,109.315 70.336 C 109.463 70.338,109.913 70.563,110.317 70.836 C 110.720 71.110,111.170 71.334,111.317 71.335 C 112.034 71.340,114.500 74.171,114.500 74.991 C 114.500 75.883,112.522 78.214,111.333 78.722 C 111.104 78.820,110.714 79.038,110.466 79.206 C 110.218 79.375,109.768 79.596,109.466 79.698 C 109.164 79.801,108.722 80.020,108.483 80.186 C 108.245 80.352,107.696 80.567,107.264 80.663 C 106.832 80.760,106.293 80.962,106.065 81.111 C 105.837 81.260,105.008 81.485,104.223 81.611 C 103.335 81.753,102.636 81.964,102.375 82.170 C 102.081 82.401,101.699 82.500,101.103 82.501 C 99.521 82.504,97.315 82.836,96.660 83.170 C 95.636 83.693,81.141 83.673,80.000 83.147 C 79.477 82.906,78.592 82.743,77.073 82.607 C 75.536 82.470,74.765 82.327,74.449 82.120 C 74.202 81.958,73.382 81.747,72.626 81.650 C 71.767 81.540,71.078 81.352,70.793 81.150 C 70.541 80.971,69.954 80.753,69.488 80.664 C 69.021 80.576,68.440 80.364,68.195 80.194 C 67.950 80.024,67.503 79.801,67.201 79.698 C 66.899 79.596,66.437 79.359,66.175 79.173 C 65.913 78.986,65.656 78.833,65.605 78.833 C 65.273 78.833,63.464 77.362,62.989 76.706 C 61.600 74.790,62.906 72.499,66.351 70.809 C 68.392 69.809,69.445 69.352,69.937 69.254 C 70.782 69.085,72.000 67.478,72.000 66.533 C 72.000 65.946,71.372 64.702,70.721 64.000 C 70.509 63.771,70.166 63.326,69.959 63.012 C 69.265 61.958,67.673 61.433,66.250 61.789"/><path id="path1" fill="#000" fill-rule="evenodd" stroke="none" d="M82.382 3.675 C 81.996 3.751,81.471 3.961,81.215 4.140 C 80.913 4.352,80.346 4.500,79.600 4.563 C 78.913 4.620,78.176 4.803,77.767 5.016 C 77.391 5.213,76.708 5.484,76.250 5.619 C 75.792 5.754,75.267 5.998,75.083 6.162 C 74.900 6.325,74.450 6.552,74.083 6.666 C 73.717 6.780,73.229 7.047,73.000 7.258 C 72.771 7.470,72.387 7.691,72.146 7.751 C 71.906 7.810,71.179 8.284,70.530 8.804 C 69.881 9.324,68.929 10.048,68.414 10.412 C 67.289 11.208,64.667 13.795,64.667 14.110 C 64.667 14.233,64.608 14.333,64.536 14.333 C 64.464 14.333,64.281 14.540,64.130 14.792 C 63.978 15.044,63.362 15.839,62.761 16.559 C 62.159 17.278,61.667 18.004,61.667 18.171 C 61.667 18.338,61.490 18.686,61.274 18.946 C 60.722 19.606,59.694 21.646,59.564 22.338 C 59.504 22.656,59.323 23.067,59.160 23.250 C 58.819 23.636,58.502 24.686,58.501 25.436 C 58.500 25.721,58.346 26.150,58.159 26.389 C 57.182 27.630,57.187 41.377,58.164 42.699 C 58.386 42.998,58.500 43.413,58.500 43.915 C 58.500 44.716,58.850 45.755,59.225 46.066 C 59.346 46.167,59.533 46.652,59.641 47.142 C 59.748 47.633,59.973 48.233,60.141 48.476 C 60.309 48.718,60.771 49.517,61.168 50.250 C 61.565 50.983,62.063 51.793,62.274 52.050 C 62.486 52.306,62.773 52.756,62.913 53.050 C 63.053 53.343,63.622 54.183,64.178 54.917 C 64.733 55.650,65.346 56.512,65.540 56.833 C 65.733 57.154,66.278 57.867,66.750 58.417 C 67.790 59.628,69.053 61.476,69.082 61.827 C 69.108 62.161,70.071 63.115,70.302 63.038 C 70.400 63.006,70.598 63.207,70.742 63.485 C 70.987 63.959,70.985 63.985,70.710 63.890 C 70.469 63.807,70.476 63.835,70.748 64.046 C 70.930 64.188,71.137 64.268,71.208 64.225 C 71.374 64.122,72.359 65.160,73.255 66.383 C 73.927 67.300,75.258 68.816,77.667 71.409 C 80.123 74.053,85.819 79.656,86.750 80.344 C 88.135 81.367,88.898 81.376,90.180 80.383 C 91.917 79.038,100.875 69.973,102.170 68.250 C 102.514 67.792,103.067 67.158,103.398 66.842 C 103.729 66.526,104.001 66.189,104.001 66.092 C 104.003 65.911,105.571 64.167,105.733 64.167 C 105.782 64.167,105.778 64.298,105.724 64.458 C 105.666 64.631,105.750 64.582,105.930 64.341 C 106.097 64.116,106.244 63.793,106.256 63.624 C 106.278 63.334,107.126 62.515,107.902 62.035 C 108.246 61.822,108.246 61.821,107.875 61.921 C 107.240 62.093,107.562 61.562,109.342 59.500 C 110.546 58.104,112.000 56.214,112.000 56.043 C 112.000 55.970,112.281 55.558,112.625 55.127 C 113.355 54.212,114.000 53.209,114.000 52.988 C 114.000 52.903,114.075 52.833,114.167 52.833 C 114.258 52.833,114.333 52.732,114.333 52.608 C 114.333 52.484,114.514 52.187,114.734 51.949 C 114.955 51.711,115.228 51.232,115.342 50.883 C 115.455 50.535,115.722 50.042,115.934 49.787 C 116.146 49.532,116.371 49.044,116.433 48.703 C 116.495 48.362,116.703 47.860,116.894 47.588 C 117.596 46.589,117.039 45.017,115.881 44.726 C 115.341 44.591,115.546 44.393,116.336 44.287 C 117.544 44.125,118.486 43.055,118.496 41.832 C 118.498 41.602,118.706 41.040,118.958 40.582 L 119.417 39.750 119.417 34.833 C 119.417 29.784,119.342 28.866,118.896 28.419 C 118.733 28.257,118.589 27.656,118.505 26.789 C 118.371 25.390,118.120 24.511,117.801 24.313 C 117.703 24.253,117.564 23.833,117.493 23.382 C 117.369 22.598,117.038 21.707,116.670 21.167 C 116.576 21.029,116.348 20.579,116.163 20.167 C 115.366 18.389,113.800 16.094,112.240 14.417 C 111.729 13.867,111.208 13.229,111.082 13.000 C 110.825 12.529,109.942 11.677,108.833 10.827 C 108.421 10.511,107.933 10.114,107.750 9.944 C 107.182 9.417,105.388 8.170,104.550 7.719 C 102.476 6.604,100.594 5.667,100.428 5.667 C 100.328 5.667,99.767 5.434,99.184 5.149 C 98.490 4.811,97.769 4.602,97.103 4.547 C 96.542 4.500,95.838 4.322,95.537 4.151 C 94.479 3.547,84.800 3.198,82.382 3.675 M244.906 13.375 L 244.417 13.917 244.958 13.427 C 245.463 12.971,245.577 12.833,245.448 12.833 C 245.419 12.833,245.175 13.077,244.906 13.375 M255.565 20.333 C 255.565 21.571,255.592 22.077,255.624 21.458 C 255.656 20.840,255.656 19.827,255.624 19.208 C 255.592 18.590,255.565 19.096,255.565 20.333 M92.220 18.907 C 92.603 19.131,93.289 19.398,93.743 19.499 C 94.198 19.601,94.677 19.774,94.807 19.884 C 94.938 19.993,95.329 20.233,95.676 20.417 C 97.542 21.401,98.031 21.757,99.273 23.028 C 101.152 24.951,101.833 25.711,101.833 25.884 C 101.833 25.965,101.970 26.231,102.138 26.474 C 102.305 26.718,102.543 27.179,102.667 27.500 C 102.790 27.821,103.028 28.282,103.196 28.526 C 103.902 29.553,104.664 29.487,91.586 29.537 L 79.673 29.583 79.161 30.096 C 78.309 30.948,78.302 33.257,79.147 34.488 C 79.309 34.724,79.543 35.179,79.667 35.500 C 80.337 37.232,84.352 41.333,85.378 41.333 C 85.474 41.333,85.809 41.530,86.124 41.770 C 86.439 42.010,87.101 42.312,87.597 42.441 C 88.092 42.571,88.761 42.832,89.083 43.022 C 89.512 43.275,90.134 43.405,91.408 43.507 C 92.620 43.604,93.286 43.737,93.607 43.948 C 94.030 44.225,94.695 44.257,101.687 44.333 C 105.877 44.379,109.362 44.473,109.431 44.542 C 109.499 44.610,109.353 44.667,109.106 44.667 C 108.859 44.667,108.228 44.844,107.703 45.061 C 107.066 45.325,106.261 45.489,105.272 45.555 C 104.254 45.622,103.588 45.761,103.131 45.999 C 102.766 46.190,101.916 46.451,101.242 46.580 C 100.569 46.708,99.839 46.931,99.621 47.074 C 99.402 47.217,98.817 47.454,98.320 47.600 C 97.823 47.745,97.267 47.999,97.083 48.164 C 96.900 48.329,96.487 48.517,96.167 48.582 C 95.846 48.646,95.281 48.873,94.912 49.085 C 94.542 49.298,93.942 49.523,93.578 49.587 C 93.214 49.650,92.637 49.881,92.295 50.101 C 91.406 50.672,85.445 50.719,84.531 50.162 C 84.227 49.977,83.590 49.743,83.114 49.642 C 82.639 49.541,82.063 49.326,81.833 49.165 C 81.604 49.003,81.140 48.756,80.803 48.616 C 80.261 48.390,78.739 47.310,77.493 46.268 C 77.260 46.073,76.666 45.389,76.173 44.748 C 75.680 44.108,75.065 43.337,74.805 43.036 C 74.546 42.735,74.333 42.347,74.333 42.174 C 74.333 42.001,74.157 41.647,73.941 41.388 C 73.725 41.129,73.494 40.617,73.428 40.250 C 73.362 39.883,73.115 39.251,72.879 38.844 C 72.207 37.686,72.213 31.482,72.888 30.192 C 73.129 29.730,73.374 29.053,73.433 28.687 C 73.491 28.320,73.635 27.984,73.751 27.939 C 73.868 27.895,74.099 27.496,74.266 27.054 C 74.433 26.612,74.931 25.800,75.374 25.250 C 75.817 24.700,76.402 23.973,76.674 23.635 C 77.276 22.887,80.286 20.594,81.128 20.242 C 81.464 20.102,81.853 19.888,81.994 19.766 C 82.135 19.644,82.577 19.495,82.976 19.434 C 83.375 19.373,83.938 19.195,84.226 19.037 C 85.101 18.559,85.309 18.534,88.470 18.517 C 91.423 18.501,91.547 18.514,92.220 18.907 M162.127 20.618 C 162.334 20.658,162.634 20.656,162.794 20.615 C 162.953 20.573,162.783 20.540,162.417 20.542 C 162.050 20.544,161.920 20.578,162.127 20.618 M204.460 20.618 C 204.668 20.658,204.968 20.656,205.127 20.615 C 205.286 20.573,205.117 20.540,204.750 20.542 C 204.383 20.544,204.253 20.578,204.460 20.618 M211.542 20.615 C 211.702 20.657,211.965 20.657,212.125 20.615 C 212.285 20.573,212.154 20.539,211.833 20.539 C 211.512 20.539,211.381 20.573,211.542 20.615 M310.906 23.708 L 310.417 24.250 310.958 23.760 C 311.463 23.304,311.577 23.167,311.448 23.167 C 311.419 23.167,311.175 23.410,310.906 23.708 M308.654 25.376 C 309.129 25.914,309.073 25.897,309.336 25.580 C 309.513 25.367,309.502 25.343,309.267 25.433 C 309.104 25.496,308.835 25.412,308.619 25.230 C 308.300 24.961,308.305 24.981,308.654 25.376 M234.333 32.740 C 234.333 33.066,234.362 33.333,234.398 33.333 C 234.535 33.333,234.604 32.314,234.472 32.233 C 234.396 32.186,234.333 32.414,234.333 32.740 M186.105 32.875 L 185.806 33.417 186.149 33.000 C 186.454 32.630,186.589 32.333,186.453 32.333 C 186.427 32.333,186.270 32.577,186.105 32.875 M136.201 33.678 C 135.993 34.038,135.857 34.333,135.898 34.333 C 136.013 34.333,136.713 33.158,136.641 33.086 C 136.606 33.051,136.408 33.317,136.201 33.678 M350.871 33.632 L 350.491 34.250 350.912 33.782 C 351.144 33.525,351.333 33.244,351.333 33.157 C 351.333 32.912,351.277 32.970,350.871 33.632 M263.906 34.708 L 263.417 35.250 263.958 34.760 C 264.463 34.304,264.577 34.167,264.448 34.167 C 264.419 34.167,264.175 34.410,263.906 34.708 M157.625 34.451 C 157.831 34.491,158.169 34.491,158.375 34.451 C 158.581 34.411,158.412 34.379,158.000 34.379 C 157.587 34.379,157.419 34.411,157.625 34.451 M159.292 34.451 C 159.498 34.491,159.835 34.491,160.042 34.451 C 160.248 34.411,160.079 34.379,159.667 34.379 C 159.254 34.379,159.085 34.411,159.292 34.451 M185.105 34.875 L 184.806 35.417 185.149 35.000 C 185.454 34.630,185.589 34.333,185.453 34.333 C 185.427 34.333,185.270 34.577,185.105 34.875 M207.127 34.451 C 207.334 34.491,207.634 34.490,207.794 34.448 C 207.953 34.406,207.783 34.374,207.417 34.375 C 207.050 34.377,206.920 34.411,207.127 34.451 M209.127 34.451 C 209.334 34.491,209.634 34.490,209.794 34.448 C 209.953 34.406,209.783 34.374,209.417 34.375 C 209.050 34.377,208.920 34.411,209.127 34.451 M255.577 44.417 C 255.577 48.908,255.599 50.722,255.625 48.447 C 255.651 46.172,255.651 42.497,255.625 40.280 C 255.599 38.064,255.577 39.925,255.577 44.417 M287.391 36.451 C 287.670 36.523,287.654 36.581,287.225 37.057 L 286.750 37.583 287.286 37.099 C 287.835 36.604,287.865 36.318,287.365 36.353 C 287.128 36.369,287.132 36.384,287.391 36.451 M217.827 39.241 C 218.108 39.649,218.417 40.032,218.514 40.092 C 218.612 40.152,218.416 39.819,218.080 39.351 C 217.329 38.306,217.122 38.216,217.827 39.241 M347.871 41.632 L 347.491 42.250 347.912 41.782 C 348.144 41.525,348.333 41.244,348.333 41.157 C 348.333 40.912,348.277 40.970,347.871 41.632 M196.869 42.625 C 196.370 43.388,196.473 43.486,196.986 42.736 C 197.204 42.419,197.352 42.132,197.316 42.100 C 197.280 42.067,197.078 42.303,196.869 42.625 M300.740 42.708 L 300.250 43.250 300.792 42.760 C 301.297 42.304,301.410 42.167,301.281 42.167 C 301.252 42.167,301.009 42.410,300.740 42.708 M330.787 47.335 C 330.469 47.707,330.410 47.909,330.666 47.751 C 330.829 47.650,331.228 47.000,331.126 47.000 C 331.098 47.000,330.945 47.151,330.787 47.335 M278.240 48.042 L 277.750 48.583 278.292 48.094 C 278.797 47.638,278.910 47.500,278.781 47.500 C 278.752 47.500,278.509 47.744,278.240 48.042 M181.906 51.708 L 181.417 52.250 181.958 51.760 C 182.463 51.304,182.577 51.167,182.448 51.167 C 182.419 51.167,182.175 51.410,181.906 51.708 M293.324 51.792 L 292.750 52.417 293.375 51.842 C 293.719 51.526,294.000 51.245,294.000 51.217 C 294.000 51.090,293.859 51.210,293.324 51.792 M218.397 52.375 C 217.823 53.348,217.786 53.431,218.078 53.083 C 218.416 52.680,218.708 52.167,218.599 52.167 C 218.555 52.167,218.464 52.260,218.397 52.375 M133.833 53.120 C 133.833 53.217,133.988 53.473,134.177 53.690 L 134.520 54.083 134.227 53.583 C 133.842 52.925,133.833 52.915,133.833 53.120 M170.248 53.499 C 170.613 53.569,171.063 53.566,171.248 53.491 C 171.474 53.399,171.257 53.357,170.583 53.363 C 169.643 53.371,169.623 53.379,170.248 53.499 M175.252 53.491 C 175.437 53.566,175.887 53.569,176.252 53.499 C 176.877 53.379,176.857 53.371,175.917 53.363 C 175.243 53.357,175.026 53.399,175.252 53.491 M217.158 54.125 L 216.583 54.750 217.208 54.176 C 217.552 53.860,217.833 53.578,217.833 53.551 C 217.833 53.423,217.692 53.543,217.158 54.125 M273.073 54.375 L 272.583 54.917 273.125 54.427 C 273.630 53.971,273.743 53.833,273.615 53.833 C 273.586 53.833,273.342 54.077,273.073 54.375 M269.240 59.042 L 268.750 59.583 269.292 59.094 C 269.797 58.638,269.910 58.500,269.781 58.500 C 269.752 58.500,269.509 58.744,269.240 59.042 M265.318 60.972 C 265.408 61.140,265.613 61.384,265.773 61.514 C 265.953 61.660,265.913 61.544,265.667 61.208 C 265.229 60.610,265.065 60.499,265.318 60.972 M308.318 60.972 C 308.408 61.140,308.613 61.384,308.773 61.514 C 308.953 61.660,308.913 61.544,308.667 61.208 C 308.229 60.610,308.065 60.499,308.318 60.972 M188.753 63.149 C 189.090 63.617,189.399 64.000,189.440 64.000 C 189.555 64.000,188.522 62.533,188.319 62.408 C 188.222 62.348,188.417 62.681,188.753 63.149 M244.921 62.833 C 245.235 63.407,246.345 64.987,246.501 65.084 C 246.595 65.142,246.320 64.678,245.891 64.053 C 245.115 62.922,244.649 62.336,244.921 62.833 M177.994 65.125 L 177.083 66.083 178.042 65.172 C 178.569 64.671,179.000 64.240,179.000 64.214 C 179.000 64.090,178.841 64.235,177.994 65.125 M105.167 65.249 C 104.952 65.478,104.808 65.693,104.847 65.727 C 104.885 65.761,105.091 65.574,105.304 65.311 C 105.782 64.723,105.697 64.685,105.167 65.249 M72.039 66.500 C 72.039 66.821,72.073 66.952,72.115 66.792 C 72.157 66.631,72.157 66.369,72.115 66.208 C 72.073 66.048,72.039 66.179,72.039 66.500 M104.714 66.750 C 104.716 67.208,104.748 67.376,104.786 67.123 C 104.825 66.869,104.824 66.494,104.784 66.289 C 104.744 66.084,104.713 66.292,104.714 66.750 M52.906 68.375 L 52.417 68.917 52.958 68.427 C 53.463 67.971,53.577 67.833,53.448 67.833 C 53.419 67.833,53.175 68.077,52.906 68.375 M231.994 70.125 L 231.083 71.083 232.042 70.172 C 232.569 69.671,233.000 69.240,233.000 69.214 C 233.000 69.090,232.841 69.235,231.994 70.125 M322.397 69.375 C 321.823 70.348,321.786 70.431,322.078 70.083 C 322.416 69.680,322.708 69.167,322.599 69.167 C 322.555 69.167,322.464 69.260,322.397 69.375 M336.871 70.632 L 336.491 71.250 336.912 70.782 C 337.144 70.525,337.333 70.244,337.333 70.157 C 337.333 69.912,337.277 69.970,336.871 70.632 M321.158 71.125 L 320.583 71.750 321.208 71.176 C 321.552 70.860,321.833 70.578,321.833 70.551 C 321.833 70.423,321.692 70.543,321.158 71.125 M111.347 71.375 C 111.385 71.398,111.642 71.604,111.917 71.833 L 112.417 72.250 112.013 71.792 C 111.790 71.540,111.534 71.333,111.443 71.333 C 111.352 71.333,111.309 71.352,111.347 71.375 M157.366 71.624 C 158.346 71.654,159.996 71.654,161.032 71.625 C 162.069 71.595,161.267 71.571,159.250 71.571 C 157.233 71.571,156.385 71.595,157.366 71.624 M206.717 71.624 C 207.708 71.654,209.283 71.654,210.217 71.624 C 211.152 71.595,210.342 71.570,208.417 71.571 C 206.492 71.571,205.727 71.595,206.717 71.624 M226.458 71.622 C 226.848 71.657,227.485 71.657,227.875 71.622 C 228.265 71.587,227.946 71.558,227.167 71.558 C 226.387 71.558,226.069 71.587,226.458 71.622 M258.797 71.623 C 259.282 71.657,260.032 71.656,260.464 71.622 C 260.896 71.588,260.500 71.560,259.583 71.561 C 258.667 71.561,258.313 71.589,258.797 71.623 M280.029 71.625 C 284.399 71.650,291.599 71.650,296.029 71.625 C 300.459 71.600,296.883 71.580,288.083 71.580 C 279.283 71.580,275.659 71.600,280.029 71.625 M49.397 72.375 C 48.823 73.348,48.786 73.431,49.078 73.083 C 49.416 72.680,49.708 72.167,49.599 72.167 C 49.555 72.167,49.464 72.260,49.397 72.375 M62.375 75.083 C 62.377 75.450,62.411 75.580,62.451 75.373 C 62.491 75.166,62.490 74.866,62.448 74.706 C 62.406 74.547,62.374 74.717,62.375 75.083 M313.906 75.375 L 313.417 75.917 313.958 75.427 C 314.256 75.158,314.500 74.914,314.500 74.885 C 314.500 74.757,314.362 74.870,313.906 75.375 M113.158 77.125 L 112.583 77.750 113.208 77.176 C 113.790 76.641,113.910 76.500,113.783 76.500 C 113.755 76.500,113.474 76.781,113.158 77.125 M330.496 81.625 L 329.083 83.083 330.542 81.670 C 331.896 80.358,332.076 80.167,331.955 80.167 C 331.930 80.167,331.273 80.823,330.496 81.625 M77.042 82.615 C 77.202 82.657,77.465 82.657,77.625 82.615 C 77.785 82.573,77.654 82.539,77.333 82.539 C 77.012 82.539,76.881 82.573,77.042 82.615 M124.994 86.125 L 124.083 87.083 125.042 86.172 C 125.569 85.671,126.000 85.240,126.000 85.214 C 126.000 85.090,125.841 85.235,124.994 86.125 M317.208 87.623 C 317.644 87.657,318.356 87.657,318.792 87.623 C 319.227 87.588,318.871 87.560,318.000 87.560 C 317.129 87.560,316.773 87.588,317.208 87.623 M100.542 95.615 C 100.702 95.657,100.965 95.657,101.125 95.615 C 101.285 95.573,101.154 95.539,100.833 95.539 C 100.513 95.539,100.381 95.573,100.542 95.615 M79.042 96.448 C 79.202 96.490,79.465 96.490,79.625 96.448 C 79.785 96.406,79.654 96.372,79.333 96.372 C 79.012 96.372,78.881 96.406,79.042 96.448 M97.042 96.448 C 97.202 96.490,97.465 96.490,97.625 96.448 C 97.785 96.406,97.654 96.372,97.333 96.372 C 97.013 96.372,96.881 96.406,97.042 96.448"/></g></svg>