<?xml version="1.0" standalone="no"?>
<!DOCTYPE svg PUBLIC "-//W3C//DTD SVG 20010904//EN"
 "http://www.w3.org/TR/2001/REC-SVG-20010904/DTD/svg10.dtd">
<svg version="1.0" xmlns="http://www.w3.org/2000/svg"
 width="1500.000000pt" height="260.000000pt" viewBox="0 0 1500.000000 260.000000"
 preserveAspectRatio="xMidYMid meet">

<g transform="translate(0.000000,260.000000) scale(0.100000,-0.100000)"
fill="#000000" stroke="none">
<path d="M1756 2589 c-76 -12 -167 -62 -222 -121 -31 -33 -99 -140 -183 -285
l-134 -233 -321 0 c-514 0 -524 -5 -753 -406 -73 -127 -133 -234 -133 -237 0
-4 188 -7 418 -7 l417 0 186 323 185 322 790 5 789 5 57 28 c32 16 74 47 94
70 41 47 325 533 316 542 -9 8 -1452 3 -1506 -6z"/>
<path d="M4750 1295 l0 -645 70 0 70 0 0 290 0 290 400 0 400 0 0 65 0 65
-400 0 -400 0 0 225 0 225 475 0 475 0 0 65 0 65 -545 0 -545 0 0 -645z"/>
<path d="M6400 1295 l0 -645 70 0 70 0 0 645 0 645 -70 0 -70 0 0 -645z"/>
<path d="M7110 1875 l0 -65 270 0 270 0 0 -580 0 -580 70 0 70 0 0 580 0 580
275 0 275 0 0 65 0 65 -615 0 -615 0 0 -65z"/>
<path d="M9153 1926 c-58 -19 -104 -49 -151 -100 -96 -104 -105 -155 -100
-572 3 -304 5 -322 26 -376 32 -80 99 -150 180 -190 l67 -33 305 0 305 0 57
27 c73 34 137 98 174 174 l29 59 3 223 3 222 -255 0 -256 0 0 -65 0 -65 191 0
192 0 -5 -137 c-5 -151 -17 -191 -75 -244 -62 -58 -69 -59 -364 -59 -256 0
-275 1 -316 21 -51 25 -96 76 -112 128 -7 25 -11 149 -11 365 0 273 3 333 16
364 19 47 58 88 109 115 37 20 57 22 277 25 150 2 257 -1 291 -8 64 -13 126
-55 152 -105 19 -35 20 -35 87 -35 80 0 81 2 38 88 -36 72 -92 124 -169 161
l-56 26 -295 2 c-223 2 -305 -1 -337 -11z"/>
<path d="M10620 1295 l0 -645 65 0 65 0 2 522 3 522 71 -89 c40 -50 185 -269
324 -488 139 -219 256 -395 260 -390 4 4 121 188 260 408 140 220 283 442 319
493 l66 93 3 -536 2 -535 70 0 70 0 0 645 0 645 -89 0 -89 0 -288 -452 c-158
-249 -297 -468 -309 -485 l-22 -33 -307 485 -308 485 -84 0 -84 0 0 -645z"/>
<path d="M12760 1295 l0 -645 70 0 70 0 0 580 0 580 310 0 c180 0 330 -4 358
-11 59 -12 124 -63 152 -120 42 -81 18 -195 -53 -261 -52 -47 -109 -58 -304
-58 l-173 0 0 -65 0 -65 93 0 93 0 204 -290 205 -290 83 0 83 0 -33 48 c-18
26 -104 148 -191 272 -88 123 -161 229 -163 235 -3 6 31 25 75 43 102 42 161
94 203 180 30 60 33 75 33 157 0 77 -4 98 -27 147 -34 73 -103 142 -176 176
l-57 27 -427 3 -428 3 0 -646z"/>
<path d="M14240 1905 c0 -35 0 -35 45 -35 l45 0 0 -125 0 -125 35 0 35 0 0
124 0 125 48 3 c45 3 47 4 47 33 l0 30 -127 3 -128 3 0 -36z"/>
<path d="M14620 1780 l0 -160 30 0 29 0 3 93 3 92 59 -93 c33 -51 63 -89 67
-85 4 4 33 46 63 93 l56 85 0 -92 0 -93 35 0 35 0 0 160 0 160 -33 0 c-30 0
-36 -7 -96 -101 l-64 -101 -65 101 c-57 90 -67 101 -93 101 l-29 0 0 -160z"/>
<path d="M1070 1293 c-59 -10 -153 -47 -207 -82 -107 -69 -140 -117 -459 -671
-167 -288 -301 -526 -299 -528 2 -2 270 140 597 315 l593 318 785 5 785 5 65
32 c36 18 84 51 107 75 32 34 228 357 312 515 l12 23 -1133 -1 c-623 -1 -1144
-4 -1158 -6z"/>
</g>
</svg>
