<?xml version="1.0" encoding="UTF-8" standalone="no"?>
<!DOCTYPE svg PUBLIC "-//W3C//DTD SVG 1.1//EN" "http://www.w3.org/Graphics/SVG/1.1/DTD/svg11.dtd">
<svg width="100%" height="100%" viewBox="0 0 337 47" version="1.1" xmlns="http://www.w3.org/2000/svg" xmlns:xlink="http://www.w3.org/1999/xlink" xml:space="preserve" xmlns:serif="http://www.serif.com/" style="fill-rule:evenodd;clip-rule:evenodd;stroke-linejoin:round;stroke-miterlimit:2;">
    <g transform="matrix(1,0,0,1,-772.338,-1691.06)">
        <g transform="matrix(1,0,0,1,1104.22,1620.34)">
            <g transform="matrix(0.710007,0,0,0.710007,-280.53,78.7353)">
                <g transform="matrix(2.04972,0,0,2.04972,-74.1277,-12.7925)">
                    <g>
                        <g>
                            <g>
                                <path d="M36.515,0.733L36.515,0.733C36.524,0.734 36.533,0.736 36.542,0.738C36.548,0.74 36.555,0.742 36.562,0.744C36.572,0.748 36.581,0.752 36.59,0.756C36.597,0.76 36.604,0.764 36.612,0.769C36.619,0.773 36.626,0.778 36.632,0.783C36.639,0.789 36.647,0.795 36.654,0.802C36.659,0.808 36.664,0.813 36.669,0.819C36.675,0.827 36.682,0.836 36.687,0.845C36.693,0.853 36.698,0.862 36.702,0.872C36.712,0.893 36.719,0.915 36.722,0.94L36.709,0.89C36.713,0.899 36.716,0.909 36.718,0.919L36.722,0.94L37.01,2.956L37.643,3.193L37.79,3.351L38.599,6.002C38.63,6.011 38.66,6.028 38.687,6.051C38.788,6.14 38.798,6.294 38.71,6.395L38.71,6.394L39.511,7.7L48.095,5.126C48.099,5.125 48.103,5.124 48.106,5.123C48.133,5.116 48.157,5.113 48.181,5.114L48.128,5.118C48.133,5.117 48.138,5.116 48.143,5.116C48.152,5.115 48.161,5.114 48.169,5.114L48.185,5.115L61.916,5.699C61.919,5.699 61.922,5.699 61.924,5.699C61.973,5.695 62.024,5.706 62.069,5.733L71.674,11.423C71.848,11.526 71.827,11.784 71.639,11.859L61.257,15.964C61.239,16.01 61.208,16.052 61.164,16.081C61.088,16.132 60.993,16.134 60.917,16.095L48.733,20.323L48.345,20.724C48.267,20.804 48.147,20.819 48.053,20.768L48.001,20.729C47.94,20.669 47.916,20.586 47.931,20.508L42.976,20.78L42.811,20.995C42.809,20.997 42.807,20.999 42.805,21.002C42.781,21.032 42.748,21.056 42.71,21.072L42.73,21.062C42.715,21.07 42.699,21.077 42.682,21.081C42.672,21.084 42.662,21.086 42.652,21.087C42.647,21.088 42.643,21.089 42.638,21.089C42.622,21.09 42.607,21.09 42.591,21.088C42.587,21.088 42.581,21.087 42.576,21.086C42.562,21.084 42.548,21.08 42.534,21.075C42.511,21.067 42.49,21.055 42.469,21.039L42.517,21.068C42.505,21.062 42.493,21.056 42.482,21.048L42.469,21.039C42.467,21.037 42.464,21.035 42.461,21.033C42.451,21.024 42.441,21.014 42.431,21.003C42.427,20.998 42.424,20.994 42.421,20.99C42.41,20.975 42.4,20.957 42.392,20.938L42.342,20.815L38.965,21.001L38.665,22.86L42.105,29.062L42.192,29.136C42.264,29.198 42.291,29.292 42.27,29.377C42.3,29.499 42.23,29.63 42.103,29.667L39.27,30.504L39.631,31.462C39.676,31.579 39.623,31.707 39.517,31.763L39.46,31.784L36.537,32.48L36.518,32.484C36.51,32.486 36.502,32.486 36.494,32.487C36.472,32.488 36.45,32.486 36.427,32.481L36.479,32.487L36.465,32.485L36.427,32.481L36.405,32.477L36.391,32.481L36.335,32.487C36.27,32.487 36.211,32.462 36.168,32.42L33.502,31.784C33.36,31.75 33.279,31.599 33.331,31.462L33.69,30.503L30.859,29.667C30.732,29.63 30.662,29.499 30.692,29.377C30.671,29.292 30.698,29.198 30.77,29.136L30.855,29.062L34.296,22.86L33.997,21.001L30.619,20.815L30.57,20.938C30.526,21.045 30.415,21.104 30.306,21.087L30.252,21.072C30.232,21.064 30.214,21.053 30.198,21.041C30.092,21.121 29.94,21.101 29.859,20.995L29.68,20.763L25.031,20.508C25.042,20.565 25.032,20.626 25.001,20.677L24.961,20.729C24.865,20.822 24.71,20.82 24.617,20.724L24.228,20.323L12.052,16.091C11.991,16.125 11.916,16.132 11.848,16.106L11.798,16.081C11.753,16.051 11.722,16.009 11.705,15.963L1.035,11.966C0.843,11.895 0.82,11.632 0.997,11.528L10.912,5.732C10.952,5.708 10.996,5.698 11.039,5.699L11.046,5.699L24.414,5.129L24.461,5.117C24.496,5.112 24.53,5.114 24.562,5.122L24.777,5.115C24.785,5.114 24.789,5.114 24.793,5.114L24.806,5.115L24.818,5.116C24.824,5.116 24.829,5.117 24.834,5.118C24.84,5.119 24.846,5.12 24.852,5.122L24.861,5.124L33.449,7.7L34.251,6.393C34.178,6.309 34.173,6.189 34.232,6.1L34.275,6.051C34.302,6.028 34.332,6.011 34.364,6.002L35.172,3.351L35.319,3.193L35.95,2.957L36.24,0.94C36.241,0.933 36.242,0.925 36.244,0.919C36.246,0.91 36.248,0.902 36.251,0.893C36.254,0.885 36.257,0.877 36.261,0.87C36.265,0.86 36.271,0.851 36.277,0.842C36.28,0.837 36.283,0.832 36.287,0.826C36.295,0.817 36.303,0.808 36.311,0.799C36.315,0.796 36.319,0.792 36.323,0.789C36.332,0.781 36.342,0.773 36.353,0.767C36.358,0.764 36.362,0.762 36.366,0.759C36.391,0.746 36.418,0.737 36.447,0.733L36.402,0.744C36.408,0.742 36.413,0.74 36.419,0.739L36.447,0.733C36.45,0.733 36.453,0.732 36.456,0.732C36.475,0.73 36.495,0.73 36.515,0.733ZM38.803,30.642L36.971,31.183L36.804,31.915L39.078,31.374L38.803,30.642ZM34.158,30.642L33.884,31.374L36.091,31.899L36.091,31.628L35.99,31.182L34.158,30.642ZM36.578,24.72L36.578,30.715L37.427,26.979L36.578,24.72ZM37.738,27.807L37.094,30.639L38.631,30.185L37.738,27.807ZM35.222,27.809L34.33,30.185L35.866,30.639L35.222,27.809ZM38.089,26.261L37.934,26.945L39.099,30.047L41.632,29.298L38.089,26.261ZM34.871,26.262L31.329,29.298L33.862,30.047L35.027,26.946L34.871,26.262ZM36.091,25.499L35.534,26.98L36.091,29.43L36.091,25.499ZM38.539,23.639L38.204,25.718L41.044,28.153L38.539,23.639ZM34.422,23.638L31.918,28.152L34.758,25.718L34.422,23.638ZM37.44,21.659L36.739,23.763L37.623,26.117L37.705,25.76L38.158,22.95L37.44,21.659ZM35.52,21.658L34.804,22.949L35.257,25.76L35.338,26.116L36.091,24.113L36.091,23.371L35.52,21.658ZM36.578,11.008L36.578,22.706L37.127,21.061C37.135,21.036 37.148,21.012 37.163,20.992C37.135,20.956 37.117,20.91 37.115,20.86C37.107,20.725 37.21,20.611 37.344,20.603L37.392,20.6L39.13,16.921L39.163,16.716C39.17,16.675 39.186,16.638 39.209,16.608C39.184,16.576 39.167,16.536 39.162,16.492C39.151,16.402 39.191,16.317 39.259,16.267L39.259,13.248L39.201,13.106L36.578,11.008ZM38.467,21.028L37.709,21.07L37.692,21.107L38.283,22.171L38.467,21.028ZM34.494,21.028L34.678,22.171L35.27,21.107L35.253,21.07L34.494,21.028ZM36.091,11.241L33.758,13.107L33.702,13.245L33.704,16.267C33.757,16.307 33.793,16.367 33.801,16.436L33.8,16.492C33.795,16.536 33.778,16.576 33.753,16.609C33.776,16.638 33.792,16.675 33.799,16.716L33.832,16.923L35.568,20.6L35.618,20.603C35.733,20.609 35.825,20.695 35.844,20.804L35.847,20.86C35.845,20.91 35.827,20.956 35.799,20.993C35.814,21.012 35.827,21.036 35.835,21.061L36.091,21.829L36.091,11.241ZM34.111,18.654L34.414,20.537L35.016,20.57L34.111,18.654ZM38.85,18.654L37.945,20.57L38.547,20.537L38.85,18.654ZM32.351,16.563L30.814,20.338L33.917,20.509L33.362,17.068L33.239,16.807L33.216,16.703L33.215,16.667L32.351,16.563ZM40.61,16.563L39.746,16.667L39.746,16.703L39.723,16.807L39.598,17.071L39.044,20.509L42.148,20.338L40.61,16.563ZM46.113,15.902L41.111,16.503L42.662,20.309L42.726,20.306L46.113,15.902ZM26.526,15.864L29.93,20.289L30.298,20.309L31.85,16.503L26.526,15.864ZM46.562,16.118L43.368,20.27L47.84,20.025L46.562,16.118ZM26.311,16.384L25.122,20.025L29.288,20.253L26.311,16.384ZM15.986,11.132L24.496,19.9L24.633,19.948L25.952,15.916L25.948,15.911L25.901,15.801L25.87,15.606L15.986,11.132ZM56.975,11.132L46.935,15.678C46.934,15.679 46.934,15.681 46.933,15.682L48.328,19.948L48.463,19.901L56.975,11.132ZM57.606,11.182L49.488,19.546L60.607,15.685L57.606,11.182ZM15.356,11.182L12.358,15.681L23.472,19.545L15.356,11.182ZM33.215,14.442L32.542,16.095L33.215,16.176L33.215,14.442ZM39.746,14.443L39.746,16.176L40.419,16.095L39.746,14.443ZM33.19,13.215L27.373,15.475L32.04,16.035L33.19,13.215ZM39.772,13.215L40.92,16.035L45.589,15.475L39.772,13.215ZM62.003,6.259L58.023,10.492C58.079,10.584 58.068,10.706 57.989,10.788L57.952,10.825L61.076,15.51L70.998,11.589L62.003,6.259ZM10.964,6.265L1.685,11.69L11.886,15.509L15.009,10.825L14.973,10.788C14.895,10.707 14.883,10.587 14.938,10.495L14.939,10.491L10.964,6.265ZM24.82,5.62L24.79,5.637L26.31,15.271L26.423,15.322L33.215,12.683L33.215,8.139L24.82,5.62ZM47.869,5.702L39.746,8.139L39.746,12.683L46.362,15.253L47.869,5.702ZM48.357,5.741L46.867,15.173L57.008,10.582L48.357,5.741ZM24.336,5.891L15.953,10.582L25.779,15.03L24.336,5.891ZM39.259,8.444L36.856,10.607L39.259,12.529L39.259,8.444ZM33.702,8.445L33.702,12.529L36.091,10.618C36.091,10.611 36.092,10.603 36.092,10.596L33.702,8.445ZM23.78,5.644L11.539,6.164L15.439,10.313L23.78,5.644ZM49.182,5.644L57.523,10.313L61.422,6.164L49.182,5.644ZM38.323,8.632L37.582,8.813C37.545,8.901 37.458,8.962 37.358,8.962L35.604,8.962C35.503,8.962 35.417,8.901 35.38,8.813L34.638,8.632L36.48,10.29L38.323,8.632ZM35.471,7.788L35.822,8.475L36.071,8.475L35.471,7.788ZM37.49,7.788L36.89,8.475L37.14,8.475L37.49,7.788ZM38.472,6.936L37.797,8.258L39.087,7.944L39.09,7.941L38.472,6.936ZM34.489,6.936L33.871,7.941L33.874,7.944L35.165,8.258L34.489,6.936ZM36.481,4.142L36.178,4.187L34.854,6.343L36.48,8.202L38.108,6.342L36.784,4.187L36.481,4.142ZM35.991,3.462L35.602,3.608L35.249,4.768L35.822,3.835L35.994,3.722L36.112,3.704L35.991,3.462ZM36.97,3.461L36.848,3.704L36.968,3.722L37.14,3.835L37.712,4.767L37.359,3.608L36.97,3.461Z"/>
                            </g>
                        </g>
                    </g>
                </g>
                <g transform="matrix(1,0,0,1,-1180.9,-1701.2)">
                    <text x="1270.84px" y="1737.73px" style="font-family:'PlayfairDisplay-Regular', 'Playfair Display';font-size:44.549px;">GLO<tspan x="1361.01px 1388.45px 1415.62px " y="1737.73px 1737.73px 1737.73px ">BAL</tspan> HA<tspan x="1512.47px " y="1737.73px ">W</tspan>K</text>
                </g>
            </g>
        </g>
    </g>
</svg>
