<svg xmlns="http://www.w3.org/2000/svg" xmlns:vectornator="http://vectornator.io" xmlns:xlink="http://www.w3.org/1999/xlink" style="fill-rule:nonzero;clip-rule:evenodd;stroke-linecap:round;stroke-linejoin:round" width="100%" height="100%" version="1.1" viewBox="0 0 151 33" xml:space="preserve"><metadata><vectornator:setting key="DimensionsVisible" value="0"/><vectornator:setting key="PencilOnly" value="0"/><vectornator:setting key="SnapToPoints" value="0"/><vectornator:setting key="OutlineMode" value="0"/><vectornator:setting key="CMYKEnabledKey" value="0"/><vectornator:setting key="RulersVisible" value="1"/><vectornator:setting key="SnapToEdges" value="0"/><vectornator:setting key="GuidesVisible" value="0"/><vectornator:setting key="DisplayWhiteBackground" value="0"/><vectornator:setting key="doHistoryDisabled" value="0"/><vectornator:setting key="SnapToGuides" value="1"/><vectornator:setting key="TimeLapseWatermarkDisabled" value="0"/><vectornator:setting key="Units" value="Points"/><vectornator:setting key="DynamicGuides" value="1"/><vectornator:setting key="IsolateActiveLayer" value="0"/><vectornator:setting key="SnapToGrid" value="0"/></metadata><g id="Untitled" vectornator:layerName="Untitled"><path fill="#000" stroke="#000" stroke-linecap="butt" stroke-linejoin="round" stroke-width="1" d="M97.2+9.5C97.5+9.6+97.8+9.6+98.1+9.6C99+9.6+99.8+9.3+100.4+8.7C101+8.1+101.3+7.3+101.3+6.4C101.3+5.5+101+4.7+100.4+4.1C99.8+3.5+99.1+3.2+98.3+3.2C98.2+3.2+98.2+3.2+98.1+3.2C97.2+3.2+96.4+3.5+95.8+4.1C95.2+4.7+94.9+5.5+94.9+6.4C94.9+7.3+95.2+8.1+95.8+8.7C96.2+9.1+96.7+9.4+97.2+9.5Z" opacity="1"/><path fill="#000" stroke="#000" stroke-linecap="butt" stroke-linejoin="round" stroke-width="1" d="M137.6+3.6C137.5+3.5+137.4+3.5+137.3+3.5L132.8+3.5C132.6+3.5+132.5+3.6+132.4+3.8L130.1+17.1C130+16.4+129.9+15.8+129.7+15.2C129.4+14.3+128.9+13.5+128.2+12.8C127.7+12.3+127.2+11.9+126.5+11.6C126.3+11.5+126+11.3+125.7+11.2C124.7+10.8+123.6+10.6+122.3+10.6C120.7+10.6+119.3+10.9+118+11.5C117.5+11.7+117+12+116.5+12.3L117+11.8C117.1+11.7+117.1+11.5+117.1+11.4C117+11.3+116.9+11.2+116.8+11.2L116.7+11.2L111.3+11.2C111.2+11.2+111.1+11.3+111+11.3L107.5+15.7L106.5+13L105.9+11.4C105.8+11.3+105.7+11.2+105.6+11.2L100.3+11.2C100.2+11.2+100.1+11.3+100+11.4C100+11.4+100+11.5+99.9+11.6C99.9+11.5+99.9+11.5+99.8+11.4C99.7+11.3+99.6+11.3+99.5+11.3L96.9+11.3L95+11.3L95+11.3C95+11.2+95+11.1+95+11C95+9.9+94.8+8.9+94.4+8C94+7.1+93.4+6.3+92.7+5.6C92+4.9+91.1+4.4+90.2+4C89.6+3.8+89+3.6+88.3+3.6C87.9+3.5+87.5+3.5+87+3.5L78.8+3.5C78.6+3.5+78.5+3.6+78.5+3.8L74.1+28.4C74.1+28.5+74.1+28.6+74.2+28.7C74.3+28.8+74.4+28.8+74.5+28.8L79.1+28.8C79.3+28.8+79.4+28.7+79.4+28.5L80.9+19.8L85+19.8C85.2+19.8+85.3+19.8+85.5+19.8C86.8+19.8+87.9+19.6+89+19.2C90.2+18.8+91.3+18.2+92.2+17.5C93+16.9+93.6+16.1+94+15.2L91.7+28.4C91.7+28.5+91.7+28.6+91.8+28.7C91.9+28.8+92+28.8+92.1+28.8L93.9+28.8L96.6+28.8C96.7+28.8+96.8+28.7+96.9+28.6C97+28.7+97.1+28.8+97.2+28.8L102.7+28.8C102.8+28.8+102.9+28.7+103+28.7L104+27.3L106.3+24.1L108.4+28.6C108.5+28.7+108.6+28.8+108.7+28.8L113.6+28.8L113.9+28.8C114+28.8+114.1+28.7+114.2+28.6C114.3+28.5+114.3+28.4+114.2+28.3L113.8+27.5L114+26.7C114.1+26.8+114.2+26.9+114.2+27C114.9+27.8+115.8+28.4+116.8+28.8C117.8+29.2+119+29.4+120.2+29.4C121.4+29.4+122.4+29.3+123.4+29C124.1+28.8+124.8+28.5+125.4+28.1C126.7+27.3+127.8+26.2+128.8+24.9L128.2+28.5C128.2+28.6+128.2+28.7+128.3+28.8C128.4+28.9+128.5+28.9+128.6+28.9L133.1+28.9C133.3+28.9+133.4+28.8+133.4+28.6L137.7+4C137.7+3.8+137.7+3.7+137.6+3.6ZM88.5+13.8C87.9+14.2+87.2+14.5+86.4+14.6C86.2+14.6+85.9+14.6+85.7+14.6L81.9+14.6L83+8.6L86.8+8.6C87+8.6+87.2+8.6+87.4+8.6C88+8.7+88.5+8.9+88.9+9.3C89.4+9.8+89.6+10.4+89.6+11.2C89.6+12.4+89.2+13.2+88.5+13.8ZM113.8+27.4L109.9+19.9L113+16.3C112.9+16.5+112.8+16.8+112.7+17C112.2+18.2+112+19.5+112+20.9C112+22+112.2+23.1+112.6+24.1C112.9+25+113.4+25.8+114+26.5L113.8+27.4ZM119.3+15.9C120.1+15.3+121+15.1+122+15.1C123.1+15.1+124+15.4+124.5+15.9C125+16.4+125.2+16.9+125.3+17.5L117.9+17.5C118.2+16.9+118.6+16.3+119.3+15.9ZM128.9+24L128.9+24L125.5+22.2C125.3+22.1+125.1+22.2+125+22.3C124.8+22.5+124.7+22.8+124.5+23C124.1+23.4+123.7+23.8+123.2+24.1C122.5+24.5+121.6+24.7+120.6+24.7C119.7+24.7+118.8+24.4+118.1+23.9C117.4+23.4+117.1+22.6+117+21.5L124.7+21.5L129.3+21.5L129.3+21.5L128.9+24Z" opacity="1"/><path fill="#000" stroke="#000" stroke-linecap="butt" stroke-linejoin="round" stroke-width="1" d="M129.4+21.4L129.4+21.4L129+24C129+24+129+24+128.9+24L126.1+22.5L120.4+29.3C121.5+29.3+122.6+29.1+123.5+28.9C124.2+28.7+124.9+28.4+125.5+28C126.8+27.2+127.9+26.1+128.9+24.8L128.3+28.4C128.3+28.5+128.3+28.6+128.4+28.7C128.5+28.8+128.6+28.8+128.7+28.8L133.2+28.8C133.4+28.8+133.5+28.7+133.5+28.5L136.7+10.1L127+21.4L129.4+21.4L129.4+21.4Z" opacity="1"/><path fill="#000" stroke="#000" stroke-linecap="butt" stroke-linejoin="round" stroke-width="1" d="M137.6+3.6C137.5+3.5+137.4+3.5+137.3+3.5L132.8+3.5C132.6+3.5+132.5+3.6+132.4+3.8L130.1+17.1C130+16.4+129.9+15.8+129.7+15.2C129.4+14.3+128.9+13.5+128.2+12.8C127.7+12.3+127.2+11.9+126.5+11.6C126.3+11.5+126+11.3+125.7+11.2C124.9+10.9+124+10.7+123+10.6L112.3+23.3C112.4+23.6+112.5+23.8+112.6+24.1C112.9+25+113.4+25.8+114+26.5L113.8+27.3L111.9+23.7L108.2+28.1L108.3+28.4C108.4+28.5+108.5+28.6+108.6+28.6L113.5+28.6L113.8+28.6C113.9+28.6+114+28.5+114.1+28.4C114.2+28.3+114.2+28.2+114.1+28.1L113.7+27.3L113.9+26.5C114+26.6+114.1+26.7+114.1+26.8C114.8+27.6+115.7+28.2+116.7+28.6C117.7+29+118.9+29.2+120.1+29.2L120.2+29.2L125.9+22.4L125.3+22.1C125.1+22+124.9+22.1+124.8+22.2C124.6+22.4+124.5+22.7+124.3+22.9C123.9+23.3+123.5+23.7+123+24C122.3+24.4+121.4+24.6+120.4+24.6C119.5+24.6+118.6+24.3+117.9+23.8C117.2+23.3+116.9+22.5+116.8+21.4L124.5+21.4L126.8+21.4L136.4+10.1L137.5+3.9C137.7+3.8+137.7+3.7+137.6+3.6ZM117.9+17.5C118.2+16.9+118.7+16.4+119.3+15.9C120.1+15.3+121+15.1+122+15.1C123.1+15.1+124+15.4+124.5+15.9C125+16.4+125.2+16.9+125.3+17.5L117.9+17.5Z" opacity="1"/><path fill="#000" stroke="#000" stroke-linecap="butt" stroke-linejoin="round" stroke-width="1" d="M109.9+19.9L113+16.3C112.9+16.5+112.8+16.8+112.7+17C112.2+18.2+112+19.5+112+20.9C112+21.7+112.1+22.6+112.3+23.3L123+10.7C122.8+10.7+122.5+10.7+122.3+10.7C120.7+10.7+119.3+11+118+11.6C117.5+11.8+117+12.1+116.5+12.4L117+11.9C117.1+11.8+117.1+11.6+117.1+11.5C117+11.4+116.9+11.3+116.8+11.3L116.7+11.3L111.3+11.3C111.2+11.3+111.1+11.4+111+11.4L107.5+15.8L106.9+14.4L94.8+28.8L96.5+28.8C96.6+28.8+96.7+28.7+96.8+28.6C96.9+28.7+97+28.8+97.1+28.8L102.6+28.8C102.7+28.8+102.8+28.7+102.9+28.7L103.9+27.3L106.2+24.1L108.2+28.3L111.9+23.9L109.9+19.9Z" opacity="1"/><path fill="#000" stroke="#000" stroke-linecap="butt" stroke-linejoin="round" stroke-width="1" d="M100.4+8.7C101+8.1+101.3+7.3+101.3+6.4C101.3+6.1+101.3+5.9+101.2+5.6L97.8+9.6C97.9+9.6+97.9+9.6+98+9.6C99+9.7+99.8+9.4+100.4+8.7Z" opacity="1"/><path fill="#000" stroke="#000" stroke-linecap="butt" stroke-linejoin="round" stroke-width="1" d="M106.4+13.1L105.8+11.5C105.7+11.4+105.6+11.3+105.5+11.3L100.2+11.3C100.1+11.3+100+11.4+99.9+11.5C99.9+11.5+99.9+11.6+99.8+11.7C99.8+11.6+99.8+11.6+99.7+11.5C99.6+11.4+99.5+11.4+99.4+11.4L96.8+11.4L96.5+11.4L90.3+18.7C90.9+18.4+91.5+18+92.1+17.6C92.9+17+93.5+16.2+93.9+15.3L91.6+28.5C91.6+28.6+91.6+28.7+91.7+28.8C91.8+28.9+91.9+28.9+92+28.9L93.8+28.9L94.8+28.9L107+14.4L106.4+13.1Z" opacity="1"/><path fill="#000" stroke="#000" stroke-linecap="butt" stroke-linejoin="round" stroke-width="1" d="M100.4+4.1C99.8+3.5+99.1+3.2+98.3+3.2C98.2+3.2+98.2+3.2+98.1+3.2C97.2+3.2+96.4+3.5+95.8+4.1C95.2+4.7+94.9+5.5+94.9+6.4C94.9+7.3+95.2+8.1+95.8+8.7C96.2+9.1+96.6+9.4+97.1+9.5C97.3+9.6+97.6+9.6+97.8+9.6L101.2+5.6C101.1+5.1+100.8+4.6+100.4+4.1Z" opacity="1"/><path fill="#000" stroke="#000" stroke-linecap="butt" stroke-linejoin="round" stroke-width="1" d="M95+11.2C95+11.2+94.9+11.2+95+11.2C95+11.1+95+11+95+10.9C95+9.8+94.8+8.8+94.4+7.9C94+7+93.4+6.2+92.7+5.5C92+4.9+91.1+4.4+90.2+4C90+4+89.9+3.9+89.8+3.9L85.8+8.6L86.8+8.6C87+8.6+87.2+8.6+87.4+8.6C88+8.7+88.5+8.9+88.9+9.3C89.4+9.8+89.6+10.4+89.6+11.2C89.6+12.4+89.2+13.2+88.5+13.7C87.9+14.1+87.2+14.4+86.4+14.5C86.2+14.5+85.9+14.5+85.7+14.5L81.9+14.5L82.2+12.8L75.4+20.8L74.1+28.2C74.1+28.3+74.1+28.4+74.2+28.5C74.3+28.6+74.4+28.6+74.5+28.6L79.1+28.6C79.3+28.6+79.4+28.5+79.4+28.3L80.9+19.6L85+19.6C85.2+19.6+85.3+19.6+85.5+19.6C86.8+19.6+87.9+19.4+89+19C89.5+18.8+90+18.6+90.4+18.4L96.6+11.1L95+11.2L95+11.2Z" opacity="1"/><path fill="#000" stroke="#000" stroke-linecap="butt" stroke-linejoin="round" stroke-width="1" d="M83+8.6L85.9+8.6L89.9+3.9C89.4+3.8+88.9+3.7+88.4+3.6C88+3.5+87.6+3.5+87.1+3.5L78.9+3.5C78.7+3.5+78.6+3.6+78.6+3.8L75.6+20.9L82.4+12.9L83+8.6Z" opacity="1"/><path fill="#000" stroke="#000" stroke-linecap="butt" stroke-linejoin="round" stroke-width="1" d="M78.1+23.4C78.6+22.2+78.8+20.9+78.8+19.5C78.8+18.4+78.6+17.4+78.2+16.5C77.8+15.6+77.3+14.7+76.6+14L76.6+14L76.5+14.5C76.8+15+77.1+15.5+77.3+16C77.7+16.9+77.9+17.9+77.9+19C77.9+20.4+77.7+21.7+77.2+22.9C76.7+24.1+76+25.2+75.1+26.1C74.9+26.3+74.6+26.5+74.4+26.8L74.2+28C74.9+27.6+75.5+27.1+76+26.6C76.9+25.7+77.6+24.7+78.1+23.4Z" opacity=".25"/><path fill="#000" stroke="#000" stroke-linecap="butt" stroke-linejoin="round" stroke-width="1" d="M77.4+15.8C77+14.8+76.4+13.9+75.7+13.2C75+12.5+74.1+11.9+73.1+11.5L73+11.5L73+11.5L73+11.5C72.1+11.1+71.2+10.9+70.2+10.9C70.1+10.9+70.1+10.9+70+10.9L69.9+10.9L69.9+10.9L69.8+10.9C68.3+10.9+66.9+11.2+65.7+11.6L65.7+11.4L67+4.1C67+4+67+3.9+66.9+3.8C66.8+3.7+66.7+3.7+66.6+3.7L62.1+3.7C61.9+3.7+61.8+3.8+61.8+4L59.6+16.3C59.5+16.1+59.5+16+59.4+15.8C59+14.8+58.4+13.9+57.7+13.2C57+12.5+56.1+11.9+55.1+11.5C54.1+11.1+52.9+10.9+51.7+10.9C50.2+10.9+48.8+11.2+47.5+11.7C46.2+12.2+45.1+13+44.2+13.9C43.8+14.3+43.4+14.8+43.1+15.2L45+4.2C45+4.1+45+4+44.9+3.9C44.8+3.8+44.7+3.8+44.6+3.8L40.1+3.8C39.9+3.8+39.8+3.9+39.8+4.1L36.9+20.8C36.7+21.9+36.3+22.8+35.6+23.5C35+24.1+34.2+24.4+33.2+24.4C32.4+24.4+31.7+24.2+31.1+23.7C30.5+23.2+30.2+22.5+30.1+21.5C30.1+21.4+30+21.3+29.9+21.2C29.8+21.2+29.8+21.1+29.7+21.1L29.6+21.1L25.2+22.8C25+22.9+25+23+25+23.2C25.1+24.1+25.4+25+25.9+25.7C26.4+26.4+26.9+27.1+27.6+27.7C28.3+28.2+29.1+28.7+30+29C30.9+29.3+31.8+29.4+32.8+29.4C33.9+29.4+35+29.2+36+28.9C37+28.6+37.9+28.1+38.8+27.4C39.6+26.7+40.3+25.8+40.9+24.7C41.1+24.3+41.3+23.8+41.5+23.3C41.6+23.7+41.7+24.1+41.9+24.5C42.3+25.5+42.9+26.4+43.6+27.1C44.3+27.8+45.2+28.4+46.2+28.8C47.2+29.2+48.4+29.4+49.6+29.4C51.1+29.4+52.5+29.1+53.8+28.6C55.1+28.1+56.2+27.3+57.1+26.4C57.4+26.1+57.8+25.7+58.1+25.3L57.5+28.4C57.5+28.5+57.5+28.6+57.6+28.7C57.7+28.8+57.8+28.8+57.9+28.8L62+28.8C62.2+28.8+62.3+28.7+62.3+28.5L62.4+27.8C62.9+28.2+63.4+28.5+64+28.7C65+29.1+66.2+29.3+67.4+29.3L67.5+29.3L67.6+29.3L67.6+29.3C67.6+29.3+67.6+29.3+67.7+29.3C68.2+29.3+68.8+29.3+69.3+29.2C70.1+29.1+70.9+28.9+71.7+28.5C73+28+74.1+27.2+75+26.3C75.9+25.4+76.7+24.3+77.2+23C77.7+21.7+78+20.4+78+18.9C78+17.8+77.8+16.8+77.4+15.8ZM65.4+23.4C65.1+23.1+64.8+22.7+64.7+22.3C64.5+21.9+64.5+21.4+64.5+20.8C64.5+20.1+64.6+19.5+64.8+18.8C65+18.2+65.3+17.6+65.8+17.2C66.2+16.7+66.7+16.3+67.3+16.1C67.9+15.8+68.6+15.7+69.3+15.7C69.8+15.7+70.3+15.8+70.7+16C71.1+16.2+71.5+16.4+71.8+16.8C72.1+17.1+72.4+17.5+72.6+18C72.8+18.5+72.9+19+72.9+19.5C72.9+20.2+72.8+20.9+72.5+21.5C72.3+22.1+71.9+22.6+71.5+23.1C71.1+23.6+70.5+23.9+69.9+24.2C69.3+24.5+68.7+24.6+68+24.6C67.7+24.6+67.4+24.6+67.1+24.5C66.9+24.5+66.7+24.4+66.6+24.3C66.1+24+65.7+23.7+65.4+23.4ZM50+24.5C49.5+24.5+49+24.4+48.6+24.2C48.2+24+47.8+23.8+47.5+23.4C47.2+23.1+46.9+22.7+46.7+22.2C46.5+21.7+46.4+21.2+46.4+20.7C46.4+20+46.5+19.3+46.8+18.7C47+18.1+47.4+17.6+47.8+17.1C48.2+16.6+48.8+16.3+49.4+16C50+15.7+50.6+15.6+51.3+15.6C51.8+15.6+52.3+15.7+52.7+15.9C53.1+16.1+53.5+16.3+53.8+16.7C54.1+17+54.4+17.4+54.6+17.9C54.8+18.4+54.9+18.9+54.9+19.4C54.9+20.1+54.8+20.8+54.5+21.4C54.3+22+53.9+22.5+53.5+23C53.1+23.5+52.5+23.8+51.9+24.1C51.3+24.3+50.6+24.5+50+24.5Z" opacity="1"/><path fill="#000" stroke="#000" stroke-linecap="butt" stroke-linejoin="round" stroke-width="1" d="M19.2+16.9L18.6+16L17.5+14.4L16.4+12.8L15.3+11.2L14.2+9.6L14+9.3C13.8+8.9+13.3+8.7+12.9+8.8C12.4+8.9+12.1+9.2+12+9.6L12+11.7L12+14.4L12+16.9L12+17.1L10.3+21.4L8.7+25.4C8.7+25.5+8.7+25.5+8.7+25.6C8.7+26+9+26.3+9.3+26.4C9.4+26.5+9.6+26.5+9.8+26.5C10.1+26.5+10.4+26.4+10.6+26.1L19+17.8C19.4+17.6+19.4+17.2+19.2+16.9Z" opacity=".85"/><path fill="#000" stroke="#000" stroke-linecap="butt" stroke-linejoin="round" stroke-width="1" d="M15.3+9.6L14.7+8.7L13.6+7.1L12.5+5.5L11.4+3.9L10.3+2.3L10.3+2C10.1+1.6+9.6+1.4+9.2+1.5C8.7+1.6+8.4+1.9+8.3+2.3L8.3+4.4L8.3+7.1L8.3+9.6L8.2+9.9L6.5+14.2L4.9+18.2C4.9+18.3+4.9+18.3+4.9+18.4C4.9+18.8+5.2+19.1+5.5+19.2C5.6+19.3+5.8+19.3+6+19.3C6.3+19.3+6.6+19.2+6.8+18.9L15.2+10.6C15.5+10.4+15.6+10+15.3+9.6Z" opacity=".85"/><path fill="#000" stroke="#000" stroke-linecap="butt" stroke-linejoin="round" stroke-width="1" d="M14.4+18.1L13.6+16.8L12.1+14.6L10.6+12.4L9.1+10.2L7.7+8L7.5+7.6C7.2+7.1+6.6+6.8+5.9+6.9C5.3+7+4.8+7.4+4.7+8L4.7+10.9L4.7+14.6L4.7+18.1L4.6+18.5L2.3+24.5L0+29.9C0+30+0+30.1+0+30.2C0+30.7+0.3+31.1+0.9+31.3C1.1+31.4+1.3+31.4+1.5+31.4C1.9+31.4+2.4+31.2+2.6+30.9L14.2+19.5C14.7+19.2+14.7+18.6+14.4+18.1Z" opacity=".85"/><path fill="#000" stroke="#000" stroke-linecap="butt" stroke-linejoin="round" stroke-width="1" d="M16.6+15.4L11.5+7.8C11.3+7.4+10.8+7.2+10.4+7.3C10+7.3+9.6+7.7+9.5+8.1L9.5+15.4L6.1+24C6+24.4+6.3+24.9+6.7+25.1C6.8+25.2+7+25.2+7.2+25.2C7.5+25.2+7.8+25.1+8+24.8L16.5+16.5C16.8+16.2+16.8+15.7+16.6+15.4Z" opacity=".25"/><path fill="#000" stroke="#000" stroke-linecap="butt" stroke-linejoin="round" stroke-width="1" d="M15.7+14.9L10.6+7.3C10.5+6.9+10+6.7+9.6+6.8C9.1+6.8+8.8+7.1+8.7+7.6L8.7+14.9L5.3+23.5C5.2+23.9+5.5+24.4+5.9+24.6C6+24.7+6.2+24.7+6.4+24.7C6.7+24.7+7+24.6+7.2+24.3L15.7+16C15.9+15.7+16+15.2+15.7+14.9Z" opacity="1"/><g opacity="1"><path fill="#544e4e" stroke="#000" stroke-linecap="butt" stroke-linejoin="round" stroke-width="1" d="M106.4+19.7L102.7+14.1C102.5+13.8+102.2+13.7+101.9+13.7C101.6+13.8+101.3+14+101.2+14.3L101.2+19.7L98.7+26C98.6+26.3+98.8+26.6+99.1+26.8C99.2+26.8+99.3+26.9+99.4+26.9C99.6+26.9+99.9+26.8+100+26.6L106.2+20.5C106.5+20.2+106.5+19.9+106.4+19.7Z" opacity=".25"/><path fill="#2b2828" stroke="#000" stroke-linecap="butt" stroke-linejoin="round" stroke-width="1" d="M105.6+19.1L101.9+13.5C101.7+13.2+101.4+13.1+101.1+13.1C100.8+13.2+100.5+13.4+100.4+13.7L100.4+19.1L97.9+25.4C97.8+25.7+98+26+98.3+26.2C98.4+26.2+98.5+26.3+98.6+26.3C98.8+26.3+99.1+26.2+99.2+26L105.4+19.9C105.7+19.7+105.7+19.4+105.6+19.1Z" opacity="1"/></g></g></svg>