<?xml version="1.0" standalone="no"?>
<!DOCTYPE svg PUBLIC "-//W3C//DTD SVG 20010904//EN"
 "http://www.w3.org/TR/2001/REC-SVG-20010904/DTD/svg10.dtd">
<svg version="1.0" xmlns="http://www.w3.org/2000/svg"
 width="906.000000pt" height="239.000000pt" viewBox="0 0 906.000000 239.000000"
 preserveAspectRatio="xMidYMid meet">

<g transform="translate(0.000000,239.000000) scale(0.100000,-0.100000)"
fill="#000000" stroke="none">
<path d="M830 2375 c-552 -87 -893 -577 -805 -1158 43 -286 178 -511 390 -652
225 -149 588 -200 897 -126 445 106 698 455 698 961 0 391 -173 703 -480 868
-193 104 -459 144 -700 107z m315 -300 c154 -39 279 -139 354 -283 66 -128 84
-210 85 -387 0 -179 -14 -247 -79 -381 -138 -285 -453 -393 -741 -254 -226
109 -353 393 -323 723 28 298 196 523 437 581 77 19 195 19 267 1z"/>
<path d="M5523 2286 c-303 -255 -398 -342 -401 -369 -3 -21 9 -42 53 -93 99
-116 89 -64 95 -549 l5 -430 28 -80 c65 -184 176 -284 376 -336 107 -29 275
-28 396 0 101 24 198 70 203 95 4 18 -124 221 -158 251 -18 16 -22 16 -72 -3
-110 -41 -213 -38 -272 9 -36 28 -72 102 -85 174 -7 35 -11 196 -11 397 l0
338 218 0 c119 0 222 4 228 8 25 16 34 56 34 147 0 89 -2 98 -25 120 -24 25
-24 25 -240 25 l-215 0 0 168 c0 151 -2 171 -18 185 -10 10 -26 17 -35 17 -9
0 -56 -33 -104 -74z"/>
<path d="M4198 2030 c-348 -59 -543 -307 -458 -583 51 -163 199 -264 490 -332
303 -71 359 -87 416 -115 75 -37 99 -69 99 -132 0 -54 -23 -92 -76 -123 -29
-17 -52 -20 -159 -20 -104 0 -137 4 -195 23 -104 35 -181 80 -249 145 -34 32
-68 62 -77 67 -20 11 -326 -125 -340 -152 -13 -25 3 -51 82 -129 73 -71 201
-157 287 -193 195 -82 531 -104 747 -51 154 38 301 145 359 258 56 111 58 250
5 357 -72 143 -227 227 -584 316 -349 87 -443 143 -432 258 4 41 11 55 40 82
45 42 91 54 202 54 176 0 328 -63 448 -186 41 -41 82 -74 93 -74 10 0 71 28
134 63 105 58 115 66 118 94 2 24 -6 43 -41 84 -156 193 -428 301 -747 298
-63 -1 -136 -5 -162 -9z"/>
<path d="M6765 2023 c-266 -56 -475 -232 -561 -469 -70 -192 -71 -434 -3 -639
102 -304 330 -474 676 -503 365 -31 668 92 828 335 28 44 35 87 17 105 -13 13
-298 98 -328 98 -17 0 -33 -15 -59 -55 -66 -99 -151 -157 -266 -181 -121 -26
-244 -1 -336 66 -71 52 -139 177 -158 288 l-7 42 569 0 c498 0 571 2 591 16
19 13 22 24 22 83 0 83 -23 223 -52 311 -62 195 -196 359 -358 439 -153 75
-396 103 -575 64z m343 -298 c69 -31 98 -55 143 -115 33 -44 66 -124 83 -202
l6 -28 -385 0 c-301 0 -385 3 -385 13 0 23 29 108 55 160 49 98 147 176 249
197 65 14 174 3 234 -25z"/>
<path d="M8480 1992 c-100 -33 -176 -86 -235 -163 -20 -27 -41 -49 -45 -49 -5
0 -18 39 -31 87 -32 121 -35 123 -167 123 -81 0 -113 -4 -130 -16 l-22 -15 0
-738 c0 -702 1 -739 18 -754 27 -24 352 -25 376 -1 9 8 17 16 18 17 1 1 5 211
8 467 l5 465 29 62 c33 73 104 144 161 163 103 34 192 7 267 -80 28 -32 51
-50 65 -50 14 0 70 39 143 100 111 93 120 103 120 135 0 52 -120 169 -226 222
-75 36 -83 38 -188 40 -86 2 -124 -1 -166 -15z"/>
<path d="M2043 1975 c-37 -26 -34 -50 21 -163 29 -59 185 -390 346 -735 l293
-628 -20 -27 c-36 -49 -90 -72 -169 -72 -65 0 -80 4 -163 45 -68 34 -95 43
-108 36 -25 -13 -188 -192 -196 -215 -11 -28 16 -62 83 -105 91 -59 205 -93
335 -98 287 -13 445 99 605 432 100 206 660 1468 660 1486 0 11 -9 28 -20 39
-19 19 -33 20 -199 20 -156 0 -181 -2 -200 -17 -13 -12 -57 -118 -122 -293
-133 -363 -257 -696 -273 -740 -31 -80 -36 -71 -257 494 -123 317 -213 534
-224 543 -28 20 -362 19 -392 -2z"/>
</g>
</svg>
