<?xml version="1.0" encoding="utf-8"?>
<!DOCTYPE svg PUBLIC "-//W3C//DTD SVG 20010904//EN" "http://www.w3.org/TR/2001/REC-SVG-20010904/DTD/svg10.dtd">
<svg version="1.0" xmlns="http://www.w3.org/2000/svg" width="1103px" height="429px" viewBox="0 0 1103 429" preserveAspectRatio="xMidYMid meet">
 <g fill="#000000">
  <path d="M254.4 286.1 l0 -89.1 18.3 0 18.3 0 0 6.5 c0 3.6 0.2 6.5 0.5 6.5 0.3 0 2.6 -1.6 5.2 -3.6 10.7 -8.1 20.3 -11.4 33.8 -11.4 14.5 0 22.7 3 34.7 12.6 16 12.9 24 30.6 24 53.4 0.1 19.6 -4.7 34 -15.5 46.9 -13.9 16.5 -30.1 23.1 -51.5 21 -9.6 -1 -13.8 -2.9 -23.7 -10.7 l-7 -5.4 -0.6 16.8 c-0.5 14.2 -0.9 17.8 -2.8 22.6 -4.6 11.7 -16.7 21.3 -28.5 22.5 l-5.2 0.5 0 -89.1z m80.7 9.3 c6.3 -3.5 11.4 -9 14.8 -16.3 2.3 -5 2.6 -6.8 2.6 -17.2 0 -11.1 -0.1 -11.7 -3.4 -18.3 -6.5 -12.7 -16.9 -19.3 -29.4 -18.4 -7.6 0.5 -12.4 2.7 -18.3 8.5 -10.8 10.4 -14.1 29.2 -8.1 45.3 2.8 7.4 11.5 16.3 18.3 18.4 7.2 2.3 17 1.5 23.5 -2z"/>
  <path d="M713 347 c0 -15.4 -0.2 -28 -0.5 -28 -0.3 0 -4.9 2.1 -10.3 4.8 l-9.7 4.7 -16.1 0 -16.1 0 -8.4 -4.2 c-18.8 -9.4 -31.2 -24.6 -36 -44.3 -1.7 -7 -1.7 -27.6 0 -35.5 4.8 -22.1 23.6 -42.8 43.6 -48 7.2 -1.8 20 -1.9 27.5 -0.1 6.4 1.5 10.2 3.4 18.1 8.7 3.1 2.2 6.2 3.9 6.8 3.9 0.7 0 1.1 -2.2 1.1 -6 l0 -6 18 0 18 0 0 89 0 89 -18 0 -18 0 0 -28z m-21.2 -49.5 c6.6 -2 13.8 -8.9 17.8 -17 2.7 -5.6 2.9 -6.7 2.9 -18 0 -11.3 -0.2 -12.4 -3.1 -18.5 -7.4 -15.7 -21.8 -22.5 -36.7 -17.4 -6.4 2.2 -14.2 9.4 -18 16.8 -2.8 5.5 -3.1 7.1 -3.5 17.1 -0.3 9.5 -0.1 11.8 1.8 16.9 3.1 8 12.6 17.8 19.5 19.9 6.5 2 12.9 2.1 19.3 0.2z"/>
  <path d="M981 328.9 c-17 -1.1 -30.1 -7 -42 -18.9 -12.4 -12.4 -18 -27.4 -18 -48.4 0 -19.3 4.8 -32.8 15.8 -44.8 9.8 -10.5 21.9 -17.8 34 -20.4 8.7 -1.8 25.2 -1.8 33.9 0 18.1 3.9 34.2 16.2 41.8 32 4.4 9.2 5.5 15.9 5.5 32.8 l0 13.8 -47.5 0 c-53.9 0 -49.5 -0.8 -45.1 8.7 3 6.4 9.6 11.5 18.5 14.3 12.3 3.9 25.8 1.8 37 -5.8 l6.6 -4.4 9.7 10.4 c5.4 5.6 9.8 10.5 9.8 10.9 0 1.3 -14.1 11 -20 13.8 -12.1 5.6 -22.3 7.2 -40 6z m21.3 -79.8 l12.7 -0.1 0 -2.7 c-0.1 -7.1 -8.6 -17.6 -16.6 -20.4 -2.1 -0.7 -7 -1.3 -10.9 -1.3 -12.6 0 -24.6 7.6 -28.5 18 -1.1 3 -2 5.7 -2 5.9 0 0.4 26.6 1.2 30.5 0.8 1.1 -0.1 7.7 -0.2 14.8 -0.2z"/>
  <path d="M438.3 328.1 c-10.3 -2.6 -24.6 -13.8 -28.6 -22.2 -3.2 -7 -5 -16.1 -4.4 -22.9 1.2 -14.5 7.8 -24.5 20 -30.4 10.8 -5.3 19.3 -6.6 42.7 -6.6 22.7 0 21.3 0.7 18.5 -8.6 -1.7 -5.8 -6.1 -10.8 -11.3 -12.6 -2 -0.7 -7.5 -1.3 -12.2 -1.2 -9.5 0.1 -16.2 2 -29.1 8.5 l-7.6 3.8 -7.7 -11.2 -7.7 -11.2 2.8 -2.3 c4.7 -3.9 20.4 -11.1 28.8 -13.3 10.2 -2.7 32 -3.7 42.4 -1.9 18.8 3.2 33.4 16.2 37 33 1.2 5.5 2.2 72 1.4 90.3 l-0.4 8.7 -16.5 0 -16.4 0 0 -7 c0 -3.8 -0.4 -7 -0.9 -7 -0.5 0 -3.3 2.1 -6.3 4.6 -2.9 2.5 -7.5 5.8 -10.3 7.2 -4.6 2.4 -6.1 2.7 -18 2.9 -7.1 0.1 -14.4 -0.2 -16.2 -0.6z m37.4 -31.6 c3 -1.6 6.4 -4.5 8 -6.8 2.4 -3.5 2.8 -5 2.8 -11.1 l0 -7.1 -16.6 0 -16.6 0 -4.9 3 c-5.9 3.7 -8 8.4 -6.4 14.4 2 7.7 9.2 11.3 21 10.8 6 -0.3 8.7 -0.9 12.7 -3.2z"/>
  <path d="M823.4 328 c-6 -1.2 -15.6 -5.3 -21.6 -9.4 -12.4 -8.2 -20.8 -19.2 -25.4 -33.3 -2.7 -8.1 -2.9 -10 -2.9 -23.3 0 -12.3 0.3 -15.5 2.3 -21.4 3.7 -11.4 8 -18.5 16.2 -26.6 13.2 -13.1 28 -19 47.6 -19 20.5 0 34.4 5.2 47.7 17.9 12.9 12.2 17.7 27 17.7 54.1 l0 8 -48 0 c-42.5 0 -48 0.2 -48 1.5 0 3.2 5.1 11.4 9.5 15.3 6.5 5.8 12.8 7.7 24.5 7.6 10.8 0 17.4 -2.1 25.6 -7.9 l4.9 -3.5 6.3 6.3 c7.7 7.5 13.8 15.7 12.6 16.5 -23.4 16.2 -29.1 18.3 -50.9 18.1 -7.7 -0.1 -15.8 -0.5 -18.1 -0.9z m33.4 -78.9 l11.4 -0.1 -0.7 -3.2 c-1 -4.6 -4.9 -11.9 -7.7 -14.5 -9.8 -9.2 -28.1 -9 -40.4 0.4 -4 3 -9.4 11.6 -9.4 15 0 2.2 0.4 2.2 10.8 2.5 5.9 0.2 13.9 0.2 17.7 0.1 3.9 -0.1 12.1 -0.2 18.3 -0.2z"/>
  <path d="M554 237.5 l0 -90.5 18 0 18 0 0 90.5 0 90.5 -18 0 -18 0 0 -90.5z"/>
 </g>
 <g fill="#000000">
  <path d="M192.8 316.5 c-10.8 -2.9 -20.9 -12 -24.9 -22.3 -2 -5 -2.3 -8.1 -2.7 -24.4 -0.2 -10.4 -0.6 -18.8 -0.8 -18.8 -0.3 0 -2.7 1.2 -5.5 2.6 -12.2 6.1 -30.1 8.5 -44.7 6 -32.5 -5.7 -58.1 -31.5 -62.3 -63.1 -5.1 -38.6 15.2 -71.6 52.1 -84.6 6 -2.1 8.7 -2.4 33.5 -2.9 l27 -0.5 0.6 -14.5 c0.8 -20 3.7 -29.3 12.8 -40.7 4.5 -5.7 14.3 -13.2 21.2 -16.1 5.9 -2.6 17.7 -5.2 23.1 -5.2 2.4 0 7.5 0.7 11.3 1.5 29 6.1 49.3 34 45.4 62.3 -2.7 19.4 -14.6 36.1 -31.4 44.3 -9.6 4.6 -18.4 6.1 -33.5 5.7 l-10.5 -0.2 -0.3 86.2 -0.2 86.2 -2.8 -0.1 c-1.5 0 -4.8 -0.7 -7.4 -1.4z m-50.6 -96.7 c7.5 -3.5 14.7 -10.3 18.9 -18.1 l3.4 -6.2 0.3 -24.7 0.3 -24.8 -21.4 0 c-23.6 0 -28.5 0.8 -36.9 6.2 -9.6 6 -15.8 15.7 -17.9 27.6 -1.2 6.7 0.4 15 4.4 23 4.3 8.6 14.4 16.7 24.2 19.3 6.1 1.6 18.6 0.5 24.7 -2.3z m83.9 -111.9 c16.4 -3.5 20.7 -24.3 7.2 -34.6 -3.2 -2.5 -4.5 -2.8 -10.8 -2.8 -8.1 0 -12.3 2.1 -16.6 8.3 -2.2 3.2 -2.4 4.8 -2.7 16.3 l-0.4 12.7 2.9 0.5 c5.8 0.8 15.4 0.7 20.4 -0.4z"/>
 </g>
</svg>