<svg xmlns="http://www.w3.org/2000/svg" xmlns:xlink="http://www.w3.org/1999/xlink" width="100%" height="100%" version="1.1" viewBox="0 0 241 57" xml:space="preserve" style="fill-rule:evenodd;clip-rule:evenodd;stroke-linejoin:round;stroke-miterlimit:2"><g><g transform="matrix(1,0,0,1,-836.917,-1830.87) matrix(1,0,0,1,831.917,1826.24)"><g id="TollBrothers"><g><path d="M39.804,14.854C38.489,15.038 36.783,15.483 35.47,16.222C31.134,18.591 29.359,22.402 28.969,26.621C28.79,28.583 29.288,31.284 31.171,32.876C33.267,34.65 37.814,34.615 39.946,33.948C44.102,32.579 47.194,29.137 48.436,24.586C49.005,22.402 48.65,19.073 47.193,17.333C45.132,14.854 41.58,14.594 39.804,14.854M33.765,29.063C33.587,26.769 35.079,19.294 38.667,17.702C39.769,17.184 41.438,16.963 42.576,17.814C43.996,18.886 44.033,20.588 43.996,21.292C43.82,23.809 42.54,29.508 39.378,31.543C38.42,32.135 36.358,32.395 35.399,31.877C34.333,31.284 33.871,30.321 33.765,29.063Z"/><path d="M59.767,8.209L58.134,8.213L52.18,10.926L51.853,12.418C54.267,12.412 54.269,12.448 53.822,14.435L50.542,30.538C50.25,32.03 50.184,32.137 47.855,32.463L47.532,34.025L56.796,34L57.12,32.437C54.938,32.089 54.9,32.017 55.251,30.277L59.767,8.209"/><path d="M127.436,16.935L127.92,14.805L126.321,14.805L120.312,17.469L119.921,18.993C122.369,18.993 122.34,20.095 121.82,22.118L119.881,30.564C119.56,32.019 119.42,32.09 117.084,32.409L116.729,33.972L126.028,33.972L126.383,32.409C124.175,32.055 124.136,31.948 124.559,30.245L126.009,23.715C126.583,20.84 127.306,19.099 128.119,18.923C128.682,18.746 129.636,18.568 131.257,19.632C133.634,21.159 135.931,19.099 135.592,16.686C135.467,15.835 134.809,15.019 134.164,14.733C131.979,13.847 129.173,15.265 127.436,16.935"/><path d="M164.619,9.725L163.096,9.725L162.618,10.683C162.618,10.683 159.506,15.26 155.619,15.899L155.366,18.019L158.047,18.019L155.598,27.055C155.05,29.503 154.275,31.835 155.154,33.006C156.253,34.532 160.129,34.501 161.395,33.969C162.801,33.401 164.138,32.755 165.386,31.406L164.39,30.457C163.287,31.782 160.791,31.871 160.35,31.161C160.018,30.628 160.074,29.919 160.656,27.434L162.75,18.028L167.01,18.028L167.388,15.899L164.796,15.899C164.016,15.899 163.166,16.042 163.652,13.982L164.619,9.725"/><path d="M181.176,24.879L180.087,30.488C179.716,32.226 179.709,32.084 177.384,32.402L177.074,33.965L186.374,33.965L186.682,32.402C184.463,32.048 184.458,31.942 184.794,30.239L186.177,22.785C186.561,20.656 187.112,18.315 185.618,16.93C183.341,14.764 178.9,15.368 175.921,17.427L177.777,7.299L176.144,7.299L170.217,9.997L169.905,11.488C172.121,11.144 172.339,10.746 172.121,12.667L170.684,20.444L168.728,30.49C168.453,32.015 168.386,32.086 166.06,32.404L165.75,33.967L175.015,33.967L175.324,32.404C173.139,32.05 173.101,31.979 173.435,30.241L175.32,20.196C178.183,17.961 180.516,18.457 181.264,19.169C182.274,20.123 181.813,21.473 181.176,24.879"/><g><path d="M205.172,27.943L203.751,27.201C201.621,32.872 195.621,33.242 194.023,30.018C193.313,28.573 193.313,25.83 194.377,23.125L206.446,23.165C207.009,18.955 205.454,16.564 203.395,15.525C200.839,14.229 196.686,14.526 194.056,16.526C189.904,19.676 188.428,24.31 188.428,26.941C188.429,36.209 201.728,37.061 205.172,27.943M201.89,20.521L195.606,20.521C196.707,18.519 197.986,17.776 198.625,17.555C199.442,17.26 200.4,17.26 201.075,17.777C201.569,18.186 202.211,18.853 201.89,20.521Z"/></g><g><path d="M23.844,10.667L19.303,28.503C18.485,31.698 17.918,31.983 15.043,32.231L14.618,33.971L26.685,33.971L27.11,32.231C24.378,31.984 23.774,32.551 24.767,28.47C24.767,28.47 28.943,11.904 29.017,11.516C34.229,12.406 37.538,10.557 40.301,8.345C40.892,7.873 40.904,6.922 40.27,6.871C39.03,6.771 39.629,8.174 39.26,8.265C33.789,9.63 29.495,7.391 24.645,6.184L22.855,5.749C19.2,4.737 12.807,3.828 9.23,5.779C6.408,7.297 5.175,10.187 5.016,11.923C4.897,13.585 5.374,16.151 7.798,17.776C9.628,18.97 11.317,19.041 13.591,18.757C14.873,18.596 15.866,17.782 16.395,16.835C16.775,16.151 17.213,14.901 16.26,13.998C15.624,13.349 14.868,13.238 14.233,13.311C12.88,13.529 12.417,14.63 11.83,15.634C11.055,16.311 9.701,16.316 8.946,15.954C7.389,15.208 7.224,13.558 7.104,12.51C6.944,11.208 7.76,9.467 9.112,8.707C12.171,7.008 19.789,9.294 23.844,10.667"/></g><path d="M70.938,8.182L69.304,8.186L63.352,10.899L63.027,12.391C65.44,12.384 65.441,12.419 64.993,14.407L61.714,30.511C61.422,32.002 61.356,32.109 59.028,32.435L58.705,33.997L67.968,33.974L68.291,32.411C66.111,32.062 66.073,31.991 66.424,30.251L70.938,8.182"/><path d="M144.248,14.827C142.933,15.012 141.227,15.456 139.913,16.196C135.579,18.565 133.803,22.376 133.412,26.594C133.233,28.555 133.732,31.257 135.614,32.849C137.71,34.623 142.258,34.587 144.389,33.921C148.546,32.551 151.636,29.11 152.88,24.558C153.448,22.375 153.093,19.045 151.636,17.307C149.577,14.827 146.023,14.566 144.248,14.827M138.208,29.036C138.03,26.742 139.522,19.267 143.11,17.677C144.212,17.159 145.881,16.937 147.018,17.788C148.439,18.862 148.475,20.563 148.439,21.266C148.262,23.783 146.983,29.482 143.821,31.517C142.861,32.108 140.8,32.369 139.842,31.849C138.776,31.258 138.313,30.295 138.208,29.036Z"/><path d="M237.217,20.495L238.68,20.236L237.967,15.071L236.717,15.071L236.074,15.627C231.828,13.919 228.152,14.588 225.87,16.854C224.336,18.341 223.692,20.756 224.013,22.242C224.514,24.621 227.405,25.736 229.046,26.219L229.829,26.478C230.365,26.627 233.006,27.222 233.541,28.558C233.827,29.229 233.685,30.158 233.22,30.788C232.007,32.312 229.544,32.089 228.331,31.867C227.154,31.718 224.12,29.786 223.407,27.37L221.693,27.668L222.265,33.575L223.692,33.575L224.298,32.832C225.618,33.501 226.69,33.873 227.546,34.022C230.65,34.654 234.969,34.616 237.073,31.755C238.215,30.267 238.678,28.075 238.001,25.92C237.18,23.283 233.933,22.279 232.292,21.759L231.543,21.499C230.614,21.202 228.794,20.793 228.439,19.715C228.331,19.343 228.258,18.526 228.794,17.819C229.543,16.815 231.114,16.63 231.935,16.704C234.827,17.002 236.646,18.526 237.217,20.495"/><path d="M96.448,5.938C92.581,5.783 84.854,5.813 81.918,8.193C79.176,10.398 78.779,13.071 79.057,15.131C79.454,17.733 81.203,19.359 83.549,20.118C84.635,20.675 88.456,20.588 90.082,19.554C91.224,18.827 92.169,18.012 92.004,16.671C91.89,15.74 91.62,15.146 90.666,14.675C89.994,14.344 89.037,14.424 88.479,14.749C86.989,15.62 87.311,16.446 86.156,16.832C84.965,17.229 83.95,17.274 82.952,16.512C81.867,15.683 81.798,14.012 81.878,13.182C81.997,11.702 83.111,10.002 85.177,9.278C87.823,8.346 93.044,8.342 95.126,8.502C96.523,8.61 97.931,8.836 97.3,11.349L92.87,28.595C92.055,31.736 91.417,32.015 88.579,32.26L88.155,33.97L102.653,33.97C107.298,33.97 111.551,34.075 114.636,30.583C116.337,28.663 116.975,26.045 116.619,23.95C116.23,21.577 114.315,19.726 112.154,18.924C116.195,18.261 118.179,16.41 118.853,13.897C119.208,12.501 118.889,10.23 117.967,9.009C115.876,6.112 112.048,5.938 109.955,5.938L96.448,5.938M97.657,31.106L100.563,19.761C103.364,19.761 107.121,19.657 108.751,20.774C110.134,21.751 110.629,23.253 110.453,24.648C110.028,27.022 108.503,31.106 103.044,31.106L97.657,31.106ZM103.47,8.451L105.029,8.451C109.425,8.451 110.986,8.242 112.333,9.602C113.36,10.649 113.254,12.081 112.9,13.304C112.297,15.398 110.595,17.912 106.057,17.912L101.06,17.912L103.47,8.451Z"/><path d="M216.038,16.891L216.522,14.761L214.924,14.761L208.916,17.423L208.523,18.949C210.972,18.949 210.946,20.05 210.423,22.073L208.485,30.52C208.164,31.975 208.022,32.046 205.687,32.366L205.333,33.927L214.632,33.927L214.986,32.366C212.777,32.011 212.739,31.904 213.162,30.201L214.61,23.671C215.184,20.796 215.909,19.056 216.72,18.879C217.285,18.703 218.24,18.524 219.861,19.588C222.238,21.114 224.533,19.055 224.194,16.642C224.069,15.791 223.412,14.974 222.766,14.691C220.582,13.803 217.775,15.223 216.038,16.891"/><path d="M242.601,8.529C243.012,8.529 243.408,8.632 243.786,8.837C244.164,9.044 244.459,9.337 244.675,9.722C244.891,10.105 245.001,10.505 245.001,10.925C245.001,11.342 244.894,11.74 244.681,12.119C244.471,12.497 244.175,12.791 243.796,13.003C243.418,13.215 243.019,13.321 242.602,13.321C242.186,13.321 241.787,13.216 241.409,13.003C241.03,12.792 240.734,12.497 240.523,12.119C240.311,11.74 240.205,11.342 240.205,10.925C240.205,10.506 240.314,10.105 240.529,9.722C240.746,9.337 241.042,9.044 241.419,8.837C241.796,8.632 242.19,8.529 242.601,8.529M242.604,9.005C242.274,9.005 241.958,9.088 241.656,9.253C241.351,9.417 241.114,9.652 240.94,9.961C240.764,10.269 240.678,10.592 240.678,10.929C240.678,11.263 240.763,11.582 240.933,11.887C241.102,12.191 241.34,12.428 241.646,12.599C241.95,12.769 242.269,12.854 242.604,12.854C242.94,12.854 243.26,12.769 243.564,12.599C243.867,12.428 244.105,12.191 244.275,11.887C244.447,11.582 244.533,11.262 244.533,10.929C244.533,10.592 244.445,10.269 244.271,9.961C244.097,9.652 243.857,9.417 243.553,9.253C243.252,9.087 242.936,9.005 242.604,9.005ZM241.52,12.21L241.52,9.672L242.036,9.672C242.52,9.672 242.792,9.673 242.849,9.677C243.021,9.692 243.154,9.726 243.249,9.778C243.343,9.832 243.422,9.912 243.485,10.022C243.549,10.131 243.582,10.252 243.582,10.385C243.582,10.568 243.522,10.724 243.402,10.856C243.282,10.986 243.113,11.066 242.895,11.098C242.972,11.127 243.033,11.159 243.073,11.193C243.115,11.228 243.173,11.294 243.247,11.388C243.265,11.413 243.327,11.516 243.434,11.699L243.738,12.21L243.097,12.21L242.884,11.799C242.738,11.521 242.62,11.347 242.527,11.276C242.432,11.205 242.314,11.168 242.17,11.168L242.036,11.168L242.036,12.21L241.52,12.21ZM242.035,10.767L242.245,10.767C242.545,10.767 242.729,10.756 242.803,10.733C242.875,10.711 242.933,10.669 242.974,10.613C243.016,10.555 243.037,10.491 243.037,10.419C243.037,10.347 243.016,10.285 242.976,10.23C242.936,10.175 242.876,10.136 242.801,10.112C242.725,10.087 242.54,10.075 242.245,10.075L242.035,10.075L242.035,10.767Z" style="fill-rule:nonzero"/><g><text x="1139.18" y="1852.64" transform="matrix(1,0,0,1,-1125.63,-1791.25)" style="font-family:'AppleSDGothicNeo-Regular','Apple SD Gothic Neo';font-size:25px">KIT<tspan x="1173.26" y="1852.64">C</tspan>HEN VISU<tspan x="1291.06" y="1852.64">A</tspan>LIZER</text></g></g></g></g></g></svg>